<svg width="111" height="115" viewBox="0 0 111 115" fill="none" xmlns="http://www.w3.org/2000/svg">
<g opacity="0.2">
<path d="M24 90.79H17V95.79H24V90.79Z" fill="white"/>
<path opacity="0.64" d="M24 83.79H17V88.79H24V83.79Z" fill="white"/>
<path opacity="0.4" d="M24 76.79H17V81.79H24V76.79Z" fill="white"/>
<path opacity="0.34" d="M24 69.79H17V73.79H24V69.79Z" fill="white"/>
<path opacity="0.22" d="M24 61.79H17V66.79H24V61.79Z" fill="white"/>
<path opacity="0.15" d="M24 54.79H17V59.79H24V54.79Z" fill="white"/>
<path d="M2.82031 2.86035V102.43H109.82V113.68H13.8203" stroke="white" stroke-width="2" stroke-miterlimit="10"/>
<path d="M2.82 5.64C4.37744 5.64 5.64 4.37744 5.64 2.82C5.64 1.26256 4.37744 0 2.82 0C1.26256 0 0 1.26256 0 2.82C0 4.37744 1.26256 5.64 2.82 5.64Z" fill="white"/>
</g>
</svg>
