<svg width="35" height="50" viewBox="0 0 35 50" fill="none" xmlns="http://www.w3.org/2000/svg">
<g opacity="0.2">
<path d="M0 44.3308L0 49.8008H3.07999L3.07999 44.3308H0Z" fill="white"/>
<path opacity="0.82" d="M4.53125 44.3308V49.8008H7.61124V44.3308H4.53125Z" fill="white"/>
<path opacity="0.72" d="M9.05859 44.32V49.79H12.1386V44.32H9.05859Z" fill="white"/>
<path opacity="0.62" d="M13.5801 44.32V49.79H16.6601V44.32H13.5801Z" fill="white"/>
<path opacity="0.53" d="M18.1094 44.3308V49.8008H21.1894V44.3308H18.1094Z" fill="white"/>
<path d="M0 33.2507L0 38.7207H3.08L3.08 33.2507H0Z" fill="white"/>
<path opacity="0.82" d="M4.53125 33.2507V38.7207H7.61125V33.2507H4.53125Z" fill="white"/>
<path opacity="0.72" d="M9.05859 33.24V38.71H12.1386V33.24H9.05859Z" fill="white"/>
<path opacity="0.62" d="M13.5801 33.24V38.71H16.6601V33.24H13.5801Z" fill="white"/>
<path opacity="0.53" d="M18.1094 33.2507V38.7207H21.1894V33.2507H18.1094Z" fill="white"/>
<path opacity="0.41" d="M22.6406 33.2507V38.7207H25.7206V33.2507H22.6406Z" fill="white"/>
<path opacity="0.32" d="M27.1699 33.2507V38.7207H30.2499V33.2507H27.1699Z" fill="white"/>
<path d="M0 22.1706L0 27.6406H3.08L3.08 22.1706H0Z" fill="white"/>
<path opacity="0.82" d="M4.53125 22.1706V27.6406H7.61125V22.1706H4.53125Z" fill="white"/>
<path opacity="0.72" d="M9.05859 22.1599V27.6299H12.1386V22.1599H9.05859Z" fill="white"/>
<path opacity="0.62" d="M13.5898 22.1599V27.6299H16.6698V22.1599H13.5898Z" fill="white"/>
<path opacity="0.53" d="M18.1094 22.1706V27.6406H21.1894V22.1706H18.1094Z" fill="white"/>
<path opacity="0.41" d="M22.6406 22.1706V27.6406H25.7206V22.1706H22.6406Z" fill="white"/>
<path opacity="0.32" d="M27.1699 22.1706V27.6406H30.2499V22.1706H27.1699Z" fill="white"/>
<path opacity="0.24" d="M31.6992 22.1599V27.6299H34.7792V22.1599H31.6992Z" fill="white"/>
<path d="M0 11.0905L0 16.5605H3.08L3.08 11.0905H0Z" fill="white"/>
<path opacity="0.82" d="M4.53125 11.0905V16.5605H7.61125V11.0905H4.53125Z" fill="white"/>
<path opacity="0.72" d="M9.05859 11.0798V16.5498H12.1386V11.0798H9.05859Z" fill="white"/>
<path opacity="0.62" d="M13.5898 11.0798V16.5498H16.6698V11.0798H13.5898Z" fill="white"/>
<path opacity="0.53" d="M18.1094 11.0906V16.5605H21.1894V11.0906H18.1094Z" fill="white"/>
<path d="M0 0.0104675L0 5.48047H3.08L3.08 0.0104675H0Z" fill="white"/>
<path opacity="0.82" d="M4.53125 0.0104675V5.48047H7.61125V0.0104675H4.53125Z" fill="white"/>
<path opacity="0.72" d="M9.05859 -0.000274658V5.46973H12.1386V-0.000274658H9.05859Z" fill="white"/>
<path opacity="0.62" d="M13.5898 -0.000274658V5.46973H16.6698V-0.000274658H13.5898Z" fill="white"/>
<path opacity="0.53" d="M18.1094 0.0104752V5.48047H21.1894V0.0104752H18.1094Z" fill="white"/>
<path opacity="0.41" d="M22.6406 0.0104675V5.48047H25.7206V0.0104675H22.6406Z" fill="white"/>
<path opacity="0.32" d="M27.1699 -0.000274658V5.46973H30.2499V-0.000274658H27.1699Z" fill="white"/>
<path opacity="0.24" d="M31.6992 -0.000274658V5.46973H34.7792V-0.000274658H31.6992Z" fill="white"/>
</g>
</svg>
