<svg width="24" height="24" viewBox="0 0 24 24" fill="none" xmlns="http://www.w3.org/2000/svg">
<path d="M20.31 6.93079C20.2116 6.93079 20.1279 6.91169 20.059 6.87351C19.9902 6.83532 19.936 6.7685 19.8967 6.67303L19.0406 4.72554L16.8856 3.80907C16.7872 3.77088 16.7183 3.71838 16.679 3.65155C16.6396 3.58473 16.6199 3.50358 16.6199 3.40811C16.6199 3.31265 16.6396 3.2315 16.679 3.16468C16.7183 3.09785 16.7872 3.04535 16.8856 3.00716L19.0406 2.11933L19.8967 0.257757C19.936 0.162291 19.9902 0.0954654 20.059 0.0572792C20.1279 0.0190931 20.2116 0 20.31 0C20.4084 0 20.492 0.0190931 20.5609 0.0572792C20.6298 0.0954654 20.6839 0.162291 20.7232 0.257757L21.5793 2.11933L23.7343 3.00716C23.8327 3.04535 23.9016 3.09785 23.941 3.16468C23.9803 3.2315 24 3.31265 24 3.40811C24 3.50358 23.9803 3.58473 23.941 3.65155C23.9016 3.71838 23.8327 3.77088 23.7343 3.80907L21.5793 4.72554L20.7232 6.67303C20.6839 6.7685 20.6298 6.83532 20.5609 6.87351C20.492 6.91169 20.4084 6.93079 20.31 6.93079ZM20.31 24C20.2312 24 20.1525 23.9809 20.0738 23.9427C19.9951 23.9045 19.936 23.8377 19.8967 23.7422L19.0406 21.8807L16.9151 20.9928C16.8167 20.9547 16.7478 20.9021 16.7085 20.8353C16.6691 20.7685 16.6494 20.6873 16.6494 20.5919C16.6494 20.4964 16.6691 20.4153 16.7085 20.3484C16.7478 20.2816 16.8167 20.2291 16.9151 20.1909L19.0406 19.3031L19.8967 17.327C19.936 17.2315 19.9902 17.1647 20.059 17.1265C20.1279 17.0883 20.2116 17.0692 20.31 17.0692C20.4084 17.0692 20.492 17.0883 20.5609 17.1265C20.6298 17.1647 20.6839 17.2315 20.7232 17.327L21.5793 19.3031L23.7048 20.1909C23.8032 20.2291 23.8721 20.2816 23.9114 20.3484C23.9508 20.4153 23.9705 20.4964 23.9705 20.5919C23.9705 20.6873 23.9508 20.7685 23.9114 20.8353C23.8721 20.9021 23.8032 20.9547 23.7048 20.9928L21.5793 21.8807L20.7232 23.7422C20.6839 23.8377 20.6248 23.9045 20.5461 23.9427C20.4674 23.9809 20.3887 24 20.31 24ZM7.35055 19.0453C7.19311 19.0453 7.04059 19.0024 6.89299 18.9165C6.74539 18.8305 6.63223 18.7112 6.55351 18.5585L4.63469 14.5776L0.501845 12.7733C0.344403 12.6969 0.221402 12.5871 0.132841 12.4439C0.0442804 12.3007 0 12.1527 0 12C0 11.8473 0.0442804 11.6993 0.132841 11.5561C0.221402 11.4129 0.344403 11.3031 0.501845 11.2267L4.63469 9.42243L6.55351 5.47017C6.63223 5.29833 6.74539 5.16945 6.89299 5.08353C7.04059 4.99761 7.19311 4.95465 7.35055 4.95465C7.508 4.95465 7.66052 4.99761 7.80812 5.08353C7.95572 5.16945 8.06888 5.28878 8.1476 5.44153L10.0959 9.42243L14.1993 11.2267C14.3764 11.3031 14.5092 11.4129 14.5978 11.5561C14.6863 11.6993 14.7306 11.8473 14.7306 12C14.7306 12.1527 14.6863 12.3007 14.5978 12.4439C14.5092 12.5871 14.3764 12.6969 14.1993 12.7733L10.0959 14.5776L8.1476 18.5585C8.06888 18.7303 7.95572 18.8544 7.80812 18.9308C7.66052 19.0072 7.508 19.0453 7.35055 19.0453Z" fill="white"/>
</svg>
