<svg width="34" height="34" viewBox="0 0 34 34" fill="none" xmlns="http://www.w3.org/2000/svg">
<path d="M1 19.963V24.7037V32C1 32.5523 1.44771 33 2 33H9.2963H16.4074M19.963 1H32C32.5523 1 33 1.44772 33 2V14.037" stroke="white"/>
<path d="M25.125 13.0256C25.1258 12.4123 24.8876 11.8356 24.4534 11.4023L22.5967 9.54572C22.1626 9.11238 21.5876 8.87319 20.9734 8.87403C20.3601 8.87486 19.7842 9.11481 19.3525 9.54897L9.0575 19.8915C8.94 20.009 8.875 20.1674 8.875 20.3324V24.499C8.875 24.844 9.155 25.124 9.5 25.124H13.6667C13.8317 25.124 13.9909 25.0582 14.1075 24.9423L24.45 14.6465C24.885 14.2149 25.1242 13.639 25.125 13.0256ZM13.4083 23.8748H10.125V20.5916L17.6191 13.0632L20.9376 16.3806L13.4083 23.8748ZM23.5684 13.7615L21.8234 15.499L18.5009 12.1774L20.2383 10.4315C20.435 10.234 20.6967 10.1257 20.9758 10.1248H20.9766C21.255 10.1248 21.5167 10.2331 21.7142 10.4298L23.5708 12.2865C23.7675 12.484 23.8758 12.7457 23.8758 13.0248C23.875 13.3032 23.7659 13.5649 23.5684 13.7615ZM25.125 24.4998C25.125 24.8448 24.845 25.1248 24.5 25.1248H18.6667C18.3217 25.1248 18.0417 24.8448 18.0417 24.4998C18.0417 24.1548 18.3217 23.8748 18.6667 23.8748H24.5C24.845 23.8748 25.125 24.1548 25.125 24.4998Z" fill="#FEFEFE"/>
</svg>
