<svg width="18" height="19" viewBox="0 0 18 19" fill="none" xmlns="http://www.w3.org/2000/svg">
<path d="M9.75 3V0.75L14.25 5.25H12C10.42 5.25 9.75 4.58 9.75 3ZM14.9099 9.70999L8.93994 15.72C8.65994 16 8.5 16.38 8.5 16.78V17.7C8.5 17.87 8.36995 18 8.19995 18H3C1 18 0 17 0 15V3C0 1 1 0 3 0H8.25V3C8.25 5.42 9.58 6.75 12 6.75H15V9.5C15 9.58 14.9699 9.65999 14.9099 9.70999ZM8.75 13C8.75 12.586 8.414 12.25 8 12.25H4C3.586 12.25 3.25 12.586 3.25 13C3.25 13.414 3.586 13.75 4 13.75H8C8.414 13.75 8.75 13.414 8.75 13ZM11.75 9C11.75 8.586 11.414 8.25 11 8.25H4C3.586 8.25 3.25 8.586 3.25 9C3.25 9.414 3.586 9.75 4 9.75H11C11.414 9.75 11.75 9.414 11.75 9ZM10 16.78V19H12.22L16.22 15.02L13.98 12.78L10 16.78ZM17.74 12.25L16.75 11.26C16.4 10.91 15.84 10.91 15.49 11.26L14.6799 12.08L16.9199 14.32L17.74 13.51C18.09 13.16 18.09 12.6 17.74 12.25Z" fill="#FEFEFE"/>
</svg>
