<svg width="20" height="18" viewBox="0 0 20 18" fill="none" xmlns="http://www.w3.org/2000/svg">
<path d="M16 0.25H4C1.582 0.25 0.25 1.582 0.25 4V14C0.25 16.418 1.582 17.75 4 17.75H16C18.418 17.75 19.75 16.418 19.75 14V4C19.75 1.582 18.418 0.25 16 0.25ZM4 1.75H16C17.577 1.75 18.25 2.423 18.25 4V11.25L13.71 6.70996C13.32 6.31996 12.68 6.31996 12.29 6.70996L7.34998 11.6499C7.15998 11.8399 6.84002 11.8399 6.65002 11.6499L5.70996 10.71C5.31996 10.32 4.68004 10.32 4.29004 10.71L1.75 13.25V4C1.75 2.423 2.423 1.75 4 1.75ZM4.75 6C4.75 5.31 5.30404 4.75 5.99304 4.75H6.00305C6.69205 4.75 7.25098 5.31 7.25098 6C7.25098 6.69 6.69305 7.25 6.00305 7.25C5.31405 7.25 4.75 6.69 4.75 6Z" fill="#FEFEFE"/>
</svg>
