<svg width="18" height="16" viewBox="0 0 18 16" fill="none" xmlns="http://www.w3.org/2000/svg">
<path d="M0.300049 6.75H7.94995C8.11595 6.75 8.25 6.88405 8.25 7.05005V9.94995C8.25 10.116 8.11595 10.25 7.94995 10.25H0.300049C0.134049 10.25 0 10.116 0 9.94995V7.05005C0 6.88405 0.134049 6.75 0.300049 6.75ZM0 12.05V13C0 15 1 16 3 16H7.94995C8.11595 16 8.25 15.866 8.25 15.7V12.05C8.25 11.884 8.11595 11.75 7.94995 11.75H0.300049C0.134049 11.75 0 11.884 0 12.05ZM15 0H3C1 0 0 1 0 3V4.94995C0 5.11595 0.134049 5.25 0.300049 5.25H17.7C17.866 5.25 18 5.11595 18 4.94995V3C18 1 17 0 15 0ZM9.75 7.05005V9.94995C9.75 10.116 9.88405 10.25 10.05 10.25H17.7C17.866 10.25 18 10.116 18 9.94995V7.05005C18 6.88405 17.866 6.75 17.7 6.75H10.05C9.88405 6.75 9.75 6.88405 9.75 7.05005ZM9.75 12.05V15.7C9.75 15.866 9.88405 16 10.05 16H15C17 16 18 15 18 13V12.05C18 11.884 17.866 11.75 17.7 11.75H10.05C9.88405 11.75 9.75 11.884 9.75 12.05Z" fill="#FEFEFE"/>
</svg>
