<svg width="4" height="20" viewBox="0 0 4 20" fill="none" xmlns="http://www.w3.org/2000/svg">
<path d="M2.01965 3.5C1.19065 3.5 0.514648 2.829 0.514648 2C0.514648 1.171 1.18164 0.5 2.00964 0.5H2.01965C2.84865 0.5 3.51965 1.171 3.51965 2C3.51965 2.829 2.84865 3.5 2.01965 3.5ZM3.51965 10C3.51965 9.171 2.84865 8.5 2.01965 8.5H2.00964C1.18164 8.5 0.514648 9.171 0.514648 10C0.514648 10.829 1.19065 11.5 2.01965 11.5C2.84865 11.5 3.51965 10.829 3.51965 10ZM3.51965 18C3.51965 17.171 2.84865 16.5 2.01965 16.5H2.00964C1.18164 16.5 0.514648 17.171 0.514648 18C0.514648 18.829 1.19065 19.5 2.01965 19.5C2.84865 19.5 3.51965 18.829 3.51965 18Z" fill="#FEFEFE"/>
</svg>
