<svg width="17" height="17" viewBox="0 0 17 17" fill="none" xmlns="http://www.w3.org/2000/svg">
<path d="M14.8922 6.66308L5.38634 0.978087C4.11217 0.213921 2.55632 0.415582 1.51549 1.47308C0.48049 2.52558 0.307876 4.07559 1.08621 5.32893L3.14208 8.63892L1.08621 11.9489C0.307043 13.2022 0.479657 14.7522 1.51549 15.8047C2.13466 16.4339 2.93536 16.7597 3.75202 16.7597C4.30702 16.7597 4.87051 16.6089 5.38634 16.2997L14.8922 10.6147C15.5955 10.1947 16.0146 9.45558 16.0146 8.63892C16.0146 7.82225 15.5955 7.08308 14.8922 6.66308ZM14.2513 9.54226L4.74547 15.2273C3.7963 15.7939 2.89201 15.4214 2.40701 14.9281C1.92701 14.4397 1.57052 13.5389 2.14802 12.6081L4.22545 9.26308H8.72293C9.06793 9.26308 9.34793 8.98308 9.34793 8.63808C9.34793 8.29308 9.06793 8.01308 8.72293 8.01308H4.22545L2.14802 4.66807C1.57052 3.73724 1.92618 2.83641 2.40701 2.34807C2.71868 2.03141 3.20284 1.76391 3.76118 1.76391C4.07201 1.76391 4.40547 1.8464 4.74547 2.04974L14.2513 7.73476C14.573 7.92726 14.7646 8.26474 14.7646 8.63808C14.7646 9.01141 14.573 9.34976 14.2513 9.54226Z" fill="#FEFEFE"/>
</svg>
