<svg width="18" height="17" viewBox="0 0 18 17" fill="none" xmlns="http://www.w3.org/2000/svg">
<path d="M14.5146 3.88617V3.63867C14.5146 1.62367 13.4046 0.513672 11.3896 0.513672H3.05631C1.79215 0.513672 0.764648 1.54117 0.764648 2.80534V13.6387C0.764648 15.6537 1.87465 16.7637 3.88965 16.7637H13.8896C15.9046 16.7637 17.0146 15.6537 17.0146 13.6387V6.972C17.0146 5.17617 16.133 4.0995 14.5146 3.88617ZM15.7646 11.7637H12.6396C11.8355 11.7637 11.1813 11.1095 11.1813 10.3053C11.1813 9.50117 11.8355 8.847 12.6396 8.847H15.7646V11.7637ZM3.05631 1.76367H11.3896C12.7038 1.76367 13.2646 2.32451 13.2646 3.63867V3.84701H3.05631C2.48215 3.84701 2.01465 3.37951 2.01465 2.80534C2.01465 2.23117 2.48215 1.76367 3.05631 1.76367ZM13.8896 15.5137H3.88965C2.57548 15.5137 2.01465 14.9528 2.01465 13.6387V4.84615C2.32715 5.00615 2.68132 5.097 3.05631 5.097H13.8896C15.2038 5.097 15.7646 5.65784 15.7646 6.972V7.597H12.6396C11.1463 7.597 9.93131 8.81201 9.93131 10.3053C9.93131 11.7987 11.1463 13.0137 12.6396 13.0137H15.7646V13.6387C15.7646 14.9528 15.2038 15.5137 13.8896 15.5137ZM13.0647 9.472H13.073C13.5338 9.472 13.9063 9.84534 13.9063 10.3053C13.9063 10.7653 13.5338 11.1387 13.073 11.1387C12.613 11.1387 12.2355 10.7653 12.2355 10.3053C12.2355 9.84534 12.6047 9.472 13.0647 9.472Z" fill="#FEFEFE"/>
</svg>
