<?xml version="1.0" standalone="no"?>
<!DOCTYPE svg PUBLIC "-//W3C//DTD SVG 1.1//EN" "http://www.w3.org/Graphics/SVG/1.1/DTD/svg11.dtd" >
<svg xmlns="http://www.w3.org/2000/svg">
<defs>
  <font id="svg-icons" horiz-adv-x="1500">
    <font-face font-family="svg-icons"
      units-per-em="1000" ascent="1000"
      descent="0" />
    <missing-glyph horiz-adv-x="0" />
    <glyph glyph-name="ai"
      unicode="&#xEA01;"
      horiz-adv-x="1000" d="M846.2499999999999 711.2170833333333C842.15 711.2170833333333 838.6625 712.0129166666667 835.7916666666666 713.60375C832.9250000000001 715.1949999999999 830.6666666666666 717.9791666666667 829.0291666666666 721.9570833333333L793.3583333333333 803.1025L703.5666666666666 841.2887499999999C699.4666666666666 842.88 696.5958333333333 845.0675 694.9583333333333 847.8520833333333C693.3166666666667 850.63625 692.4958333333334 854.0175 692.4958333333334 857.9954166666666C692.4958333333334 861.9729166666666 693.3166666666667 865.3541666666667 694.9583333333333 868.1383333333333C696.5958333333333 870.9229166666667 699.4666666666666 873.1104166666667 703.5666666666666 874.7016666666667L793.3583333333333 911.6945833333332L829.0291666666666 989.260125C830.6666666666666 993.237875 832.9250000000001 996.022275 835.7916666666666 997.6133666666668C838.6625 999.2044541666666 842.15 1000 846.2499999999999 1000C850.3499999999999 1000 853.8333333333334 999.2044541666666 856.7041666666667 997.6133666666668C859.5749999999999 996.022275 861.8291666666667 993.237875 863.4666666666666 989.260125L899.1374999999999 911.6945833333332L988.9291666666666 874.7016666666667C993.0291666666666 873.1104166666667 995.8999999999997 870.9229166666667 997.5416666666666 868.1383333333333C999.1791666666666 865.3541666666667 1000 861.9729166666666 1000 857.9954166666666C1000 854.0175 999.1791666666666 850.63625 997.5416666666666 847.8520833333333C995.8999999999997 845.0675 993.0291666666666 842.88 988.9291666666666 841.2887499999999L899.1374999999999 803.1025L863.4666666666666 721.9570833333333C861.8291666666667 717.9791666666667 859.5749999999999 715.1949999999999 856.7041666666667 713.60375C853.8333333333334 712.0129166666667 850.3499999999999 711.2170833333333 846.2499999999999 711.2170833333333zM846.2499999999999 0C842.9666666666667 0 839.6875 0.7958333333335 836.4083333333332 2.3875000000002C833.1291666666666 3.9791666666667 830.6666666666666 6.7624999999999 829.0291666666666 10.7416666666667L793.3583333333333 88.3041666666667L704.7958333333332 125.3000000000001C700.6958333333333 126.8875000000001 697.825 129.0791666666667 696.1875 131.8625000000001C694.5458333333333 134.6458333333334 693.7249999999999 138.0291666666667 693.7249999999999 142.0041666666667C693.7249999999999 145.9833333333334 694.5458333333333 149.3625000000001 696.1875 152.15C697.825 154.9333333333334 700.6958333333333 157.1208333333334 704.7958333333332 158.7125000000001L793.3583333333333 195.7041666666667L829.0291666666666 278.0416666666667C830.6666666666666 282.0208333333334 832.9250000000001 284.8041666666667 835.7916666666666 286.3958333333334C838.6625 287.9875000000001 842.15 288.7833333333334 846.2499999999999 288.7833333333334C850.3499999999999 288.7833333333334 853.8333333333334 287.9875000000001 856.7041666666667 286.3958333333334C859.5749999999999 284.8041666666667 861.8291666666667 282.0208333333334 863.4666666666666 278.0416666666667L899.1374999999999 195.7041666666667L987.7 158.7125000000001C991.8 157.1208333333334 994.6708333333332 154.9333333333334 996.3083333333332 152.15C997.95 149.3625000000001 998.7708333333334 145.9833333333334 998.7708333333334 142.0041666666667C998.7708333333334 138.0291666666667 997.95 134.6458333333334 996.3083333333332 131.8625000000001C994.6708333333332 129.0791666666667 991.8 126.8875000000001 987.7 125.3000000000001L899.1374999999999 88.3041666666667L863.4666666666666 10.7416666666667C861.8291666666667 6.7624999999999 859.3666666666667 3.9791666666667 856.0874999999999 2.3875000000002C852.8083333333334 0.7958333333335 849.5291666666666 0 846.2499999999999 0zM306.2729166666667 206.4458333333333C299.7129166666667 206.4458333333333 293.3579166666667 208.2333333333334 287.2079166666667 211.8125000000001C281.0579166666667 215.3958333333334 276.3429166666667 220.3666666666667 273.0629166666667 226.7291666666668L193.1120833333333 392.6L20.9102083333333 467.7791666666667C14.350125 470.9625000000001 9.2250833333333 475.5375 5.5350416666667 481.5041666666667C1.8450166666667 487.4708333333333 0 493.6375 0 500C0 506.3625 1.8450166666667 512.5291666666667 5.5350416666667 518.4958333333334C9.2250833333333 524.4625000000001 14.350125 529.0375 20.9102083333333 532.2208333333334L193.1120833333333 607.3987500000001L273.0629166666667 772.07625C276.3429166666667 779.23625 281.0579166666667 784.60625 287.2079166666667 788.18625C293.3579166666667 791.76625 299.7129166666667 793.55625 306.2729166666667 793.55625C312.8333333333333 793.55625 319.1883333333334 791.76625 325.3383333333333 788.18625C331.4883333333334 784.60625 336.2033333333333 779.6341666666667 339.4833333333334 773.2695833333333L420.6625 607.3987500000001L591.6374999999999 532.2208333333334C599.0166666666667 529.0375 604.55 524.4625000000001 608.2416666666666 518.4958333333334C611.9291666666666 512.5291666666667 613.775 506.3625 613.775 500C613.775 493.6375 611.9291666666666 487.4708333333333 608.2416666666666 481.5041666666667C604.55 475.5375 599.0166666666667 470.9625000000001 591.6374999999999 467.7791666666667L420.6625 392.6L339.4833333333334 226.7291666666668C336.2033333333333 219.5708333333335 331.4883333333334 214.4000000000001 325.3383333333333 211.2166666666667C319.1883333333334 208.0333333333333 312.8333333333333 206.4458333333333 306.2729166666667 206.4458333333333z" />
    <glyph glyph-name="angle-down-icon"
      unicode="&#xEA02;"
      horiz-adv-x="1000" d="M499.9941176470588 477.9470588235295C494.3470588235294 477.9470588235295 488.6970588235294 480.0941176470589 484.4029411764706 484.4176470588235L278.5220588235294 690.3C269.9044117647059 698.9176470588236 269.9044117647059 712.8891176470588 278.5220588235294 721.5067647058825C287.139705882353 730.1244117647059 301.1117647058824 730.1244117647059 309.7294117647059 721.5067647058825L500.0235294117647 531.214705882353L690.3147058823529 721.5067647058825C698.9323529411764 730.1244117647059 712.9058823529411 730.1244117647059 721.5235294117647 721.5067647058825C730.1411764705882 712.8891176470588 730.1411764705882 698.9176470588236 721.5235294117647 690.3L515.6411764705882 484.4176470588235C511.2882352941177 480.0941176470589 505.6411764705882 477.9470588235295 499.9941176470588 477.9470588235295zM147.0588235294118 552.2882352941176V447.7117647058824V323.529411764706C147.0588235294118 291.0411764705882 173.395 264.7058823529412 205.8823529411765 264.7058823529412H330.064705882353H486.9294117647058M565.3588235294118 970.5882352941176H794.1176470588235C826.6058823529412 970.5882352941176 852.9411764705882 944.2520588235294 852.9411764705882 911.764705882353V683.0058823529412" />
    <glyph glyph-name="angle-down-small"
      unicode="&#xEA03;"
      horiz-adv-x="1000" d="M500 385.4166666666668A31 31 0 0 0 477.9166666666667 394.5833333333334L311.25 561.25A31.25 31.25 0 0 0 355.4166666666667 605.4166666666667L500 460.875L644.5833333333334 605.4166666666667A31.25 31.25 0 0 0 688.75 561.25L522.0833333333334 394.5833333333334A31 31 0 0 0 500 385.4166666666668z" />
    <glyph glyph-name="angle-down"
      unicode="&#xEA04;"
      horiz-adv-x="1000" d="M500 302.0833333333334A31 31 0 0 0 477.9166666666667 311.25L186.25 602.9166666666666A31.25 31.25 0 0 0 230.4166666666667 647.0833333333333L500 377.5416666666668L769.5833333333333 647.0833333333333A31.25 31.25 0 0 0 813.7499999999999 602.9166666666666L522.0833333333333 311.25A31 31 0 0 0 500 302.0833333333334z" />
    <glyph glyph-name="angle-left-small"
      unicode="&#xEA05;"
      horiz-adv-x="1000" d="M583.3333333333333 302.0833333333334A31 31 0 0 0 561.25 311.25L394.5833333333333 477.9166666666666A31.2083333333333 31.2083333333333 0 0 0 394.5833333333333 522.0833333333333L561.25 688.75A31.25 31.25 0 0 0 605.4166666666666 644.5833333333333L460.8749999999999 500L605.4166666666666 355.4166666666667A31.25 31.25 0 0 0 583.3333333333333 302.0833333333334z" />
    <glyph glyph-name="angle-left"
      unicode="&#xEA06;"
      horiz-adv-x="1000" d="M625 177.0833333333334A31 31 0 0 0 602.9166666666666 186.25L311.25 477.9166666666666A31.2083333333333 31.2083333333333 0 0 0 311.25 522.0833333333333L602.9166666666666 813.75A31.25 31.25 0 0 0 647.0833333333334 769.5833333333333L377.5416666666667 500L647.0833333333334 230.4166666666668A31.25 31.25 0 0 0 625 177.0833333333334z" />
    <glyph glyph-name="angle-right-small"
      unicode="&#xEA07;"
      horiz-adv-x="1000" d="M416.6666666666667 302.0833333333334A31.25 31.25 0 0 0 394.5833333333333 355.4166666666667L539.125 500L394.5833333333333 644.5833333333334A31.25 31.25 0 0 0 438.75 688.75L605.4166666666666 522.0833333333335A31.2083333333333 31.2083333333333 0 0 0 605.4166666666666 477.9166666666667L438.75 311.25A31 31 0 0 0 416.6666666666667 302.0833333333334z" />
    <glyph glyph-name="angle-right"
      unicode="&#xEA08;"
      horiz-adv-x="1000" d="M375 177.0833333333334A31.25 31.25 0 0 0 352.9166666666667 230.4166666666668L622.4583333333333 500L352.9166666666667 769.5833333333334A31.25 31.25 0 0 0 397.0833333333333 813.75L688.75 522.0833333333335A31.2083333333333 31.2083333333333 0 0 0 688.75 477.9166666666667L397.0833333333334 186.25A31 31 0 0 0 375 177.0833333333334z" />
    <glyph glyph-name="angle-up-small"
      unicode="&#xEA09;"
      horiz-adv-x="1000" d="M666.6666666666666 385.4166666666668A31 31 0 0 0 644.5833333333334 394.5833333333334L500 539.125L355.4166666666667 394.5833333333334A31.25 31.25 0 0 0 311.25 438.7500000000001L477.9166666666666 605.4166666666667A31.2083333333333 31.2083333333333 0 0 0 522.0833333333333 605.4166666666667L688.75 438.7500000000001A31.25 31.25 0 0 0 666.6666666666666 385.4166666666668z" />
    <glyph glyph-name="angle-up"
      unicode="&#xEA0A;"
      horiz-adv-x="1000" d="M791.6666666666666 343.75A31 31 0 0 0 769.5833333333333 352.9166666666668L500 622.4583333333334L230.4166666666667 352.9166666666668A31.25 31.25 0 0 0 186.25 397.0833333333334L477.9166666666667 688.75A31.2083333333333 31.2083333333333 0 0 0 522.0833333333334 688.75L813.75 397.0833333333334A31.25 31.25 0 0 0 791.6666666666666 343.75z" />
    <glyph glyph-name="angles-down-small"
      unicode="&#xEA0B;"
      horiz-adv-x="1000" d="M688.75 480.4166666666666A31.2083333333333 31.2083333333333 0 0 0 688.75 436.25L522.0833333333334 269.5833333333334A31.1666666666667 31.1666666666667 0 0 0 477.9166666666667 269.5833333333334L311.25 436.25A31.25 31.25 0 0 0 355.4166666666667 480.4166666666666L500 335.875L644.5833333333334 480.4166666666666A31.2083333333333 31.2083333333333 0 0 0 688.75 480.4166666666666zM477.9166666666667 519.5833333333333A31.1666666666667 31.1666666666667 0 0 1 522.0833333333334 519.5833333333333L688.75 686.25A31.25 31.25 0 0 1 644.5833333333334 730.4166666666666L500 585.875L355.4166666666667 730.4166666666667A31.25 31.25 0 0 1 311.25 686.25z" />
    <glyph glyph-name="angles-down"
      unicode="&#xEA0C;"
      horiz-adv-x="1000" d="M813.75 522.0833333333333A31.2083333333333 31.2083333333333 0 0 0 813.75 477.9166666666666L522.0833333333334 186.25A31.1666666666667 31.1666666666667 0 0 0 477.9166666666667 186.25L186.25 477.9166666666666A31.25 31.25 0 0 0 230.4166666666667 522.0833333333333L500 252.5416666666668L769.5833333333333 522.0833333333335A31.2083333333333 31.2083333333333 0 0 0 813.75 522.0833333333333zM477.9166666666667 477.9166666666666A31.1666666666667 31.1666666666667 0 0 1 522.0833333333334 477.9166666666666L813.75 769.5833333333333A31.25 31.25 0 0 1 769.5833333333334 813.75L500 544.2083333333334L230.4166666666667 813.75A31.25 31.25 0 0 1 186.25 769.5833333333334z" />
    <glyph glyph-name="angles-left-small"
      unicode="&#xEA0D;"
      horiz-adv-x="1000" d="M480.4166666666666 644.5833333333334L335.875 500L480.4166666666666 355.4166666666667A31.25 31.25 0 1 0 436.25 311.25L269.5833333333333 477.9166666666666A31.2083333333333 31.2083333333333 0 0 0 269.5833333333333 522.0833333333333L436.25 688.75A31.25 31.25 0 0 0 480.4166666666666 644.5833333333333zM585.875 500L730.4166666666666 644.5833333333334A31.25 31.25 0 0 1 686.2500000000001 688.75L519.5833333333334 522.0833333333335A31.2083333333333 31.2083333333333 0 0 1 519.5833333333334 477.9166666666667L686.2500000000001 311.25A31.25 31.25 0 0 1 730.4166666666666 355.4166666666667z" />
    <glyph glyph-name="angles-left"
      unicode="&#xEA0E;"
      horiz-adv-x="1000" d="M500 177.0833333333334A31 31 0 0 0 477.9166666666667 186.25L186.25 477.9166666666666A31.2083333333333 31.2083333333333 0 0 0 186.25 522.0833333333333L477.9166666666667 813.75A31.25 31.25 0 0 0 522.0833333333334 769.5833333333333L252.5416666666667 500L522.0833333333334 230.4166666666668A31.25 31.25 0 0 0 500 177.0833333333334zM813.75 186.25A31.2083333333333 31.2083333333333 0 0 1 813.75 230.4166666666667L544.2083333333333 500L813.75 769.5833333333334A31.25 31.25 0 0 1 769.5833333333334 813.75L477.9166666666667 522.0833333333333A31.2083333333333 31.2083333333333 0 0 1 477.9166666666667 477.9166666666666L769.5833333333334 186.25A31.1666666666667 31.1666666666667 0 0 1 813.75 186.25z" />
    <glyph glyph-name="angles-right-small"
      unicode="&#xEA0F;"
      horiz-adv-x="1000" d="M730.4166666666666 477.9166666666667L563.75 311.25A31.25 31.25 0 0 0 519.5833333333334 355.4166666666667L664.125 500L519.5833333333334 644.5833333333334A31.25 31.25 0 0 0 563.75 688.75L730.4166666666666 522.0833333333335A31.2083333333333 31.2083333333333 0 0 0 730.4166666666666 477.9166666666667zM313.7500000000001 688.75A31.25 31.25 0 0 1 269.5833333333333 644.5833333333334L414.125 500L269.5833333333333 355.4166666666667A31.25 31.25 0 1 1 313.75 311.25L480.4166666666666 477.9166666666666A31.2083333333333 31.2083333333333 0 0 1 480.4166666666666 522.0833333333333z" />
    <glyph glyph-name="angles-right"
      unicode="&#xEA10;"
      horiz-adv-x="1000" d="M813.75 477.9166666666667L522.0833333333334 186.25A31.25 31.25 0 0 0 477.9166666666667 230.4166666666667L747.4583333333333 500L477.9166666666667 769.5833333333334A31.25 31.25 0 0 0 522.0833333333334 813.75L813.75 522.0833333333333A31.2083333333333 31.2083333333333 0 0 0 813.75 477.9166666666667zM522.0833333333334 522.0833333333335L230.4166666666667 813.75A31.25 31.25 0 0 1 186.25 769.5833333333334L455.7916666666666 500L186.25 230.4166666666668A31.25 31.25 0 1 1 230.4166666666667 186.2500000000001L522.0833333333333 477.9166666666667A31.2083333333333 31.2083333333333 0 0 1 522.0833333333333 522.0833333333333z" />
    <glyph glyph-name="angles-up-small"
      unicode="&#xEA11;"
      horiz-adv-x="1000" d="M311.25 519.5833333333334A31.2083333333333 31.2083333333333 0 0 0 311.25 563.75L477.9166666666666 730.4166666666667A31.2083333333333 31.2083333333333 0 0 0 522.0833333333333 730.4166666666667L688.75 563.75A31.25 31.25 0 1 0 644.5833333333334 519.5833333333334L500 664.125L355.4166666666667 519.5833333333334A31.2083333333333 31.2083333333333 0 0 0 311.25 519.5833333333334zM522.0833333333333 480.4166666666667A31.2083333333333 31.2083333333333 0 0 1 477.9166666666666 480.4166666666667L311.25 313.7500000000001A31.25 31.25 0 0 1 355.4166666666667 269.5833333333335L500 414.125L644.5833333333334 269.5833333333334A31.25 31.25 0 0 1 688.75 313.7499999999999z" />
    <glyph glyph-name="angles-up"
      unicode="&#xEA12;"
      horiz-adv-x="1000" d="M186.25 477.9166666666667A31.2083333333333 31.2083333333333 0 0 0 186.25 522.0833333333335L477.9166666666666 813.75A31.2083333333333 31.2083333333333 0 0 0 522.0833333333333 813.75L813.75 522.0833333333335A31.25 31.25 0 1 0 769.5833333333334 477.9166666666667L500 747.4583333333334L230.4166666666667 477.9166666666667A31.2083333333333 31.2083333333333 0 0 0 186.25 477.9166666666667zM522.0833333333334 522.0833333333335A31.2083333333333 31.2083333333333 0 0 1 477.9166666666667 522.0833333333335L186.25 230.4166666666668A31.25 31.25 0 0 1 230.4166666666667 186.2500000000001L500 455.7916666666667L769.5833333333333 186.25A31.25 31.25 0 0 1 813.7499999999999 230.4166666666667z" />
    <glyph glyph-name="back-icon"
      unicode="&#xEA13;"
      horiz-adv-x="1000" d="M119.0476190476191 524.6904761904761V411.8166666666666V261.904761904762C119.0476190476191 235.604761904762 140.367380952381 214.2857142857142 166.6666666666667 214.2857142857142H316.5785714285714H485.8904761904762M570.547619047619 976.1904761904761H833.3333333333334C859.6333333333333 976.1904761904761 880.952380952381 954.8707142857141 880.952380952381 928.5714285714286V665.7857142857142M693.4571428571429 595.2357142857143C693.4571428571429 587.0214285714286 686.7904761904762 580.354761904762 678.5761904761905 580.354761904762H357.3666666666667L470.8595238095238 466.8619047619047C476.6714285714286 461.047619047619 476.6714285714286 451.6238095238095 470.8595238095238 445.8095238095239C467.9619047619047 442.9142857142857 464.152380952381 441.4452380952381 460.3428571428571 441.4452380952381C456.5333333333333 441.4452380952381 452.7214285714285 442.8928571428571 449.8261904761905 445.8095238095239L310.9357142857143 584.7C309.5666666666667 586.0690476190475 308.4785714285714 587.7119047619049 307.7261904761905 589.5380952380953C306.2166666666667 593.1690476190477 306.2166666666667 597.2761904761904 307.7261904761905 600.9071428571428C308.4785714285714 602.7333333333333 309.5666666666667 604.3809523809523 310.9357142857143 605.75L449.8261904761905 744.6404761904762C455.6380952380953 750.452380952381 465.0642857142857 750.452380952381 470.8785714285715 744.6404761904762C476.6904761904762 738.8261904761905 476.6904761904762 729.402380952381 470.8785714285715 723.5880952380953L357.3857142857143 610.0952380952381H678.5761904761905C686.7904761904762 610.1166666666667 693.4571428571429 603.45 693.4571428571429 595.2357142857143z" />
    <glyph glyph-name="calendar"
      unicode="&#xEA14;"
      horiz-adv-x="1000" d="M750 843.75H697.9166666666666V875A31.25 31.25 0 0 1 635.4166666666666 875V843.75H364.5833333333333V875A31.25 31.25 0 0 1 302.0833333333333 875V843.75H250A140.9583333333333 140.9583333333333 0 0 1 93.75 687.5V250A140.9583333333333 140.9583333333333 0 0 1 250 93.75H750A140.9583333333333 140.9583333333333 0 0 1 906.25 250V687.5A140.9583333333333 140.9583333333333 0 0 1 750 843.75zM250 781.25H302.0833333333333V750A31.25 31.25 0 0 1 364.5833333333333 750V781.25H635.4166666666666V750A31.25 31.25 0 0 1 697.9166666666666 750V781.25H750C815.7083333333333 781.25 843.75 753.2083333333334 843.75 687.5V656.25H156.25V687.5C156.25 753.2083333333334 184.2916666666667 781.25 250 781.25zM750 156.25H250C184.2916666666667 156.25 156.25 184.2916666666668 156.25 250V593.75H843.75V250C843.75 184.2916666666666 815.7083333333334 156.25 750 156.25zM375.8333333333333 458.3333333333334A41.6666666666667 41.6666666666667 0 1 0 333.75 500H334.1666666666667A41.6666666666667 41.6666666666667 0 0 0 375.8333333333333 458.3333333333334zM542.5 458.3333333333334A41.6666666666667 41.6666666666667 0 1 0 500.4166666666666 500H500.8333333333333A41.6666666666667 41.6666666666667 0 0 0 542.5 458.3333333333334zM709.1666666666666 458.3333333333334A41.6666666666667 41.6666666666667 0 1 0 667.0833333333333 500H667.5A41.6666666666667 41.6666666666667 0 0 0 709.1666666666666 458.3333333333334zM375.8333333333333 291.6666666666668A41.6666666666667 41.6666666666667 0 1 0 333.75 333.3333333333334H334.1666666666667A41.6666666666667 41.6666666666667 0 0 0 375.8333333333333 291.6666666666668zM542.5 291.6666666666668A41.6666666666667 41.6666666666667 0 1 0 500.4166666666666 333.3333333333334H500.8333333333333A41.6666666666667 41.6666666666667 0 0 0 542.5 291.6666666666668zM709.1666666666666 291.6666666666668A41.6666666666667 41.6666666666667 0 1 0 667.0833333333333 333.3333333333334H667.5A41.6666666666667 41.6666666666667 0 0 0 709.1666666666666 291.6666666666668z" />
    <glyph glyph-name="caret-down"
      unicode="&#xEA15;"
      horiz-adv-x="1500" d="M587.2175 75.5L39.73175 724.7625C-52.26825 833.8875 25.723625 1000 168.97375 1000H1330.9625C1474.2124999999999 1000 1552.2 833.7625 1460.2 724.7625L912.7175 75.5C827.8425000000001 -25.125 672.0925 -25.125 587.2175 75.5z" />
    <glyph glyph-name="caret-up"
      unicode="&#xEA16;"
      horiz-adv-x="1500" d="M912.7825 924.4995L1460.2625 275.2375000000001C1552.2625 166.1125 1474.275 0 1331.0249999999999 0H169.03875C25.789 0 -52.202875 166.2375000000001 39.797125 275.2375000000001L587.2825 924.4995C672.1574999999999 1025.1245 827.9075 1025.1245 912.7825 924.4995z" />
    <glyph glyph-name="edit-icon"
      unicode="&#xEA17;"
      horiz-adv-x="1000" d="M29.4117647058824 412.8529411764706V273.4205882352941V58.8235294117648C29.4117647058824 42.5794117647058 42.5797058823529 29.4117647058824 58.8235294117647 29.4117647058824H273.4205882352942H482.5705882352941M587.1470588235294 970.5882352941176H941.1764705882352C957.4205882352942 970.5882352941176 970.5882352941176 957.42 970.5882352941176 941.1764705882352V587.1470588235294M738.970588235294 616.8941176470588C738.9941176470588 634.9323529411765 731.9882352941175 651.8941176470589 719.2176470588234 664.6382352941176L664.6088235294117 719.2435294117647C651.8411764705883 731.9888235294118 634.9294117647058 739.0238235294119 616.864705882353 738.9991176470589C598.8264705882352 738.974705882353 581.8882352941175 731.9173529411764 569.1911764705882 719.1479411764706L266.3970588235294 414.9558823529412C262.9411764705883 411.5 261.0294117647059 406.8411764705883 261.0294117647059 401.9882352941177V279.4411764705883C261.0294117647059 269.2941176470588 269.264705882353 261.0588235294118 279.4117647058823 261.0588235294118H401.9617647058824C406.814705882353 261.0588235294118 411.4970588235294 262.9941176470589 414.9264705882353 266.4029411764707L719.1176470588234 569.2205882352941C731.9117647058823 581.914705882353 738.9470588235293 598.8529411764706 738.970588235294 616.8941176470588zM394.3617647058824 297.8000000000001H297.7941176470588V394.364705882353L518.2088235294117 615.7882352941176L615.8117647058823 518.2176470588236L394.3617647058824 297.8000000000001zM693.1882352941176 595.25L641.8647058823528 544.1470588235294L544.1441176470588 641.8411764705883L595.2441176470587 693.1911764705883C601.0294117647059 699 608.7264705882353 702.1852941176471 616.935294117647 702.2117647058824H616.9588235294118C625.1470588235294 702.2117647058824 632.8441176470589 699.0264705882353 638.6529411764706 693.2411764705882L693.2588235294116 638.6323529411765C699.0441176470588 632.8235294117648 702.2294117647059 625.1264705882354 702.2294117647059 616.9176470588236C702.2058823529411 608.7294117647059 698.9970588235293 601.0323529411764 693.1882352941176 595.25zM738.970588235294 279.4176470588236C738.970588235294 269.2705882352942 730.735294117647 261.0352941176471 720.5882352941176 261.0352941176471H549.0205882352941C538.8735294117647 261.0352941176471 530.6382352941176 269.2705882352942 530.6382352941176 279.4176470588236C530.6382352941176 289.5647058823529 538.8735294117647 297.8000000000001 549.0205882352941 297.8000000000001H720.5882352941176C730.735294117647 297.8000000000001 738.970588235294 289.5647058823529 738.970588235294 279.4176470588236z" />
    <glyph glyph-name="envelope-open"
      unicode="&#xEA18;"
      horiz-adv-x="1000" d="M750 93.75H250A140.9583333333333 140.9583333333333 0 0 0 93.75 250V594.5A135.25 135.25 0 0 0 154.1666666666667 707.1666666666667L413.3333333333333 880A155.875 155.875 0 0 0 586.6666666666666 880L845.8333333333334 707.1666666666667A135.25 135.25 0 0 0 906.125 594.6666666666667V250A140.9583333333333 140.9583333333333 0 0 0 750 93.75zM500 843.75A93.4583333333333 93.4583333333333 0 0 1 448 827.9583333333334L188.7083333333333 655.1666666666667A72.7916666666667 72.7916666666667 0 0 1 156.25 594.5V250C156.25 184.2916666666668 184.2916666666667 156.25 250 156.25H750C815.7083333333333 156.25 843.75 184.2916666666668 843.75 250V594.5A72.7916666666667 72.7916666666667 0 0 1 811.2916666666666 655.1666666666667L551.9999999999999 828A93.4583333333333 93.4583333333333 0 0 1 500 843.7916666666666zM535.7083333333333 377.4583333333334L726.7083333333333 516.375A31.2083333333333 31.2083333333333 0 0 1 689.9583333333331 566.875L498.9999999999999 428A7.7083333333333 7.7083333333333 0 0 0 489.9583333333331 428L298.9583333333333 566.9166666666667A31.25 31.25 0 1 1 262.1666666666667 516.4166666666667L453.1666666666666 377.5A70 70 0 0 1 535.7083333333333 377.5z" />
    <glyph glyph-name="eye-slash"
      unicode="&#xEA19;"
      horiz-adv-x="1000" d="M884.5416666666666 422.1666666666668C829.7083333333333 330.7083333333334 706.7083333333333 177.0833333333334 500 177.0833333333334A389.2916666666667 389.2916666666667 0 0 0 382.25 195.2083333333334A31.25 31.25 0 0 0 401.125 254.7916666666667A327.3333333333333 327.3333333333333 0 0 1 500 239.5833333333334C675.9166666666666 239.5833333333334 782.9166666666666 374.1666666666668 830.9999999999999 454.4166666666666A87.7083333333333 87.7083333333333 0 0 1 830.9999999999999 545.5A561.9999999999999 561.9999999999999 0 0 1 780.0416666666666 617.5A31.25 31.25 0 0 0 828.125 657.4583333333334A631.7916666666666 631.7916666666666 0 0 0 884.7083333333333 577.625A150 150 0 0 0 884.5416666666666 422.1666666666668zM419.2916666666667 375L147.0833333333333 102.9166666666666A31.25 31.25 0 0 0 102.9166666666667 147.0833333333333L235.2083333333333 279.1666666666667A603.375 603.375 0 0 0 115.375 422.0416666666667A150 150 0 0 0 115.375 577.625C170.2916666666667 669.2916666666667 293.2916666666667 822.9166666666667 500 822.9166666666667A393.4166666666667 393.4166666666667 0 0 0 714.7916666666666 759L852.9166666666665 897.0833333333334A31.25 31.25 0 0 0 897.0833333333331 852.9166666666666L419.375 375V375zM400.375 444.4583333333334L555.4583333333333 599.5833333333334A112.7083333333333 112.7083333333333 0 0 1 500 614.5833333333334A114.6666666666667 114.6666666666667 0 0 1 385.4583333333333 500A112.7083333333333 112.7083333333333 0 0 1 400.375 444.5416666666668zM279.5416666666667 323.625L355.0416666666667 399.125A174.375 174.375 0 0 0 322.9583333333333 500A177.2916666666666 177.2916666666666 0 0 0 500 677.0833333333334A174.25 174.25 0 0 0 600.8749999999999 645.0833333333333L668.8333333333333 713A330.25 330.25 0 0 1 500 760.4166666666667C324.0833333333333 760.4166666666667 217.0833333333333 625.8333333333333 169 545.5833333333335A87.7083333333333 87.7083333333333 0 0 1 169 454.5000000000001A535.2916666666665 535.2916666666665 0 0 1 279.4583333333333 323.625zM612.875 481.9583333333334A114.4166666666667 114.4166666666667 0 0 0 518.2083333333333 387.2083333333334A31.25 31.25 0 1 1 527.7083333333333 325.4583333333334A175 175 0 0 1 674.6249999999999 472.375A31.25 31.25 0 0 1 612.875 481.9583333333334z" />
    <glyph glyph-name="file-text-edit"
      unicode="&#xEA1A;"
      horiz-adv-x="947.3684210526316" d="M513.1578947368421 842.1052631578946V960.5263157894736L750 723.6842105263156H631.578947368421C548.421052631579 723.6842105263156 513.1578947368421 758.9473684210525 513.1578947368421 842.1052631578946zM784.7315789473683 488.947894736842L470.5231578947368 172.6315789473683C455.7863157894737 157.8947368421052 447.3684210526316 137.8947368421052 447.3684210526316 116.8421052631578V68.421052631579C447.3684210526316 59.4736842105263 440.5236842105263 52.6315789473683 431.5763157894737 52.6315789473683H157.8947368421053C52.6315789473684 52.6315789473683 0 105.2631578947368 0 210.5263157894737V842.1052631578946C0 947.3684210526314 52.6315789473684 999.9999999999998 157.8947368421053 999.9999999999998H434.2105263157894V842.1052631578946C434.2105263157894 714.7368421052631 504.2105263157894 644.7368421052631 631.578947368421 644.7368421052631H789.4736842105262V499.9999999999999C789.4736842105262 495.7894736842105 787.8894736842105 491.5794736842104 784.7315789473683 488.947894736842zM460.5263157894736 315.7894736842104C460.5263157894736 337.578947368421 442.8421052631579 355.2631578947368 421.0526315789474 355.2631578947368H210.5263157894737C188.7368421052632 355.2631578947368 171.0526315789474 337.578947368421 171.0526315789474 315.7894736842104C171.0526315789474 294 188.7368421052632 276.3157894736842 210.5263157894737 276.3157894736842H421.0526315789474C442.8421052631579 276.3157894736842 460.5263157894736 294 460.5263157894736 315.7894736842104zM618.421052631579 526.3157894736842C618.421052631579 548.1052631578946 600.7368421052631 565.7894736842104 578.9473684210526 565.7894736842104H210.5263157894737C188.7368421052632 565.7894736842104 171.0526315789474 548.1052631578946 171.0526315789474 526.3157894736842C171.0526315789474 504.5263157894736 188.7368421052632 486.8421052631578 210.5263157894737 486.8421052631578H578.9473684210526C600.7368421052631 486.8421052631578 618.421052631579 504.5263157894736 618.421052631579 526.3157894736842zM526.3157894736842 116.8421052631578V0H643.1578947368421L853.6842105263157 209.4736842105263L735.7894736842105 327.3684210526316L526.3157894736842 116.8421052631578zM933.6842105263156 355.2631578947368L881.578947368421 407.3684210526316C863.157894736842 425.7894736842104 833.6842105263157 425.7894736842104 815.2631578947368 407.3684210526316L772.6263157894737 364.2105263157894L890.5210526315788 246.3157894736842L933.6842105263156 288.9473684210526C952.1052631578946 307.3684210526315 952.1052631578946 336.8421052631578 933.6842105263156 355.2631578947368z" />
    <glyph glyph-name="filter"
      unicode="&#xEA1B;"
      horiz-adv-x="1000" d="M583.3333333333333 93.75A31.375 31.375 0 0 0 564.5833333333334 100L397.9166666666667 225A31.25 31.25 0 0 0 385.4166666666667 250V416.6666666666668A31.125 31.125 0 0 1 376.25 438.7916666666668L162.875 652.1666666666666A93.125 93.125 0 0 0 135.4166666666667 718.4583333333334V812.5A93.875 93.875 0 0 0 229.1666666666667 906.25H770.8333333333333A93.875 93.875 0 0 0 864.5833333333333 812.5V718.4583333333334A93.125 93.125 0 0 0 837.125 652.1666666666667L623.75 438.7916666666668A31.125 31.125 0 0 1 614.5833333333333 416.6666666666668V125A31.25 31.25 0 0 0 583.3333333333333 93.75zM447.9166666666667 265.625L552.0833333333333 187.5V416.6666666666668A93.125 93.125 0 0 0 579.5416666666666 482.9583333333334L792.9166666666666 696.3333333333333A31.0416666666667 31.0416666666667 0 0 1 802.0833333333333 718.4583333333333V812.5A31.2916666666667 31.2916666666667 0 0 1 770.8333333333333 843.75H229.1666666666667A31.2916666666667 31.2916666666667 0 0 1 197.9166666666667 812.5V718.4583333333334A31.0416666666667 31.0416666666667 0 0 1 207.0833333333333 696.3333333333334L420.4583333333334 482.9583333333334A93.125 93.125 0 0 0 447.9166666666667 416.6666666666668z" />
    <glyph glyph-name="image"
      unicode="&#xEA1C;"
      horiz-adv-x="1111.111111111111" d="M888.8888888888889 986.111111111111H222.2222222222222C87.8888888888889 986.111111111111 13.8888888888889 912.111111111111 13.8888888888889 777.7777777777778V222.2222222222222C13.8888888888889 87.8888888888889 87.8888888888889 13.8888888888889 222.2222222222222 13.8888888888889H888.8888888888889C1023.2222222222222 13.8888888888889 1097.2222222222222 87.8888888888889 1097.2222222222222 222.2222222222222V777.7777777777778C1097.2222222222222 912.111111111111 1023.2222222222222 986.111111111111 888.8888888888889 986.111111111111zM222.2222222222222 902.7777777777778H888.8888888888889C976.5000000000002 902.7777777777778 1013.888888888889 865.3888888888889 1013.888888888889 777.7777777777778V375L761.6666666666667 627.2244444444444C740 648.8911111111111 704.4444444444445 648.8911111111111 682.7777777777777 627.2244444444444L408.3322222222223 352.7833333333333C397.7766666666667 342.2277777777778 380.0011111111112 342.2277777777778 369.4455555555556 352.7833333333333L317.22 404.9999999999999C295.5533333333334 426.6666666666667 260.0022222222222 426.6666666666667 238.3355555555556 404.9999999999999L97.2222222222222 263.8888888888889V777.7777777777778C97.2222222222222 865.3888888888889 134.6111111111111 902.7777777777778 222.2222222222222 902.7777777777778zM263.8888888888889 666.6666666666666C263.8888888888889 705 294.6688888888889 736.1111111111111 332.9466666666667 736.1111111111111H333.5027777777778C371.7805555555556 736.1111111111111 402.8322222222223 705 402.8322222222223 666.6666666666666C402.8322222222223 628.3333333333333 371.8361111111112 597.2222222222222 333.5027777777778 597.2222222222222C295.225 597.2222222222222 263.8888888888889 628.3333333333333 263.8888888888889 666.6666666666666z" />
    <glyph glyph-name="info-circle"
      unicode="&#xEA1D;"
      horiz-adv-x="1000" d="M500 52.0833333333334A447.9166666666667 447.9166666666667 0 1 0 947.9166666666666 500A448.4166666666667 448.4166666666667 0 0 0 500 52.0833333333334zM500 885.4166666666666A385.4166666666666 385.4166666666666 0 1 1 885.4166666666666 500A385.8333333333333 385.8333333333333 0 0 1 500 885.4166666666666zM531.25 312.5V502.9583333333334A31.25 31.25 0 0 1 468.75 502.9583333333334V312.5A31.25 31.25 0 0 1 531.25 312.5zM542.5 645.8333333333334A41.6666666666667 41.6666666666667 0 0 1 500.8333333333333 687.5H500.4166666666666A41.6666666666667 41.6666666666667 0 1 1 542.5 645.8333333333334z" />
    <glyph glyph-name="layout-web-12"
      unicode="&#xEA1E;"
      horiz-adv-x="1125" d="M18.7530625 578.125H496.871875C507.246875 578.125 515.625 569.746875 515.625 559.371875V378.1281250000001C515.625 367.75 507.246875 359.375 496.871875 359.375H18.7530625C8.3780625 359.375 0 367.75 0 378.1281250000001V559.371875C0 569.746875 8.3780625 578.125 18.7530625 578.125zM0 246.875V187.5C0 62.5 62.5 0 187.5 0H496.871875C507.246875 0 515.625 8.375 515.625 18.75V246.875C515.625 257.25 507.246875 265.625 496.871875 265.625H18.7530625C8.3780625 265.625 0 257.25 0 246.875zM937.5 1000H187.5C62.5 1000 0 937.5 0 812.5V690.628125C0 680.253125 8.3780625 671.875 18.7530625 671.875H1106.25C1116.625 671.875 1125 680.253125 1125 690.628125V812.5C1125 937.5 1062.5 1000 937.5 1000zM609.375 559.371875V378.1281250000001C609.375 367.75 617.7531250000001 359.375 628.125 359.375H1106.25C1116.625 359.375 1125 367.75 1125 378.1281250000001V559.371875C1125 569.746875 1116.625 578.125 1106.25 578.125H628.125C617.7531250000001 578.125 609.375 569.746875 609.375 559.371875zM609.375 246.875V18.75C609.375 8.375 617.7531250000001 0 628.125 0H937.5C1062.5 0 1125 62.5 1125 187.5V246.875C1125 257.25 1116.625 265.625 1106.25 265.625H628.125C617.7531250000001 265.625 609.375 257.25 609.375 246.875z" />
    <glyph glyph-name="lightbulb"
      unicode="&#xEA1F;"
      horiz-adv-x="1000" d="M488.0416666666666 906.125A302.0416666666666 302.0416666666666 0 0 1 177.0833333333333 604.1666666666667A336.9166666666667 336.9166666666667 0 0 1 271.7083333333333 384.875A155.625 155.625 0 0 0 322.9166666666667 278.2500000000001V250A147.9583333333334 147.9583333333334 0 0 1 479.1666666666666 93.75A147.9166666666667 147.9166666666667 0 0 1 635.4583333333333 250V278.4583333333334A151.375 151.375 0 0 0 684.8333333333333 383.3333333333334A329.6666666666667 329.6666666666667 0 0 1 781.2083333333333 607.2083333333334A306.25 306.25 0 0 1 488.0416666666666 906.125zM479.1666666666666 156.125A86.125 86.125 0 0 0 385.4166666666667 250V260.4166666666668H572.9166666666666V250A86.1666666666667 86.1666666666667 0 0 0 479.1666666666666 156.25zM637.5 423.8333333333334A243.5833333333333 243.5833333333333 0 0 1 578.25 322.7916666666668H510.4166666666666V445.375L584.5833333333333 519.5833333333334A31.25 31.25 0 0 1 540.4166666666666 563.75L479.1666666666666 502.5416666666667L417.9166666666667 563.75A31.25 31.25 0 0 1 373.75 519.5833333333333L447.9166666666666 445.375V322.9166666666668H380.0416666666667A253.0833333333333 253.0833333333333 0 0 1 319.25 425.5A278.0416666666667 278.0416666666667 0 0 0 239.5833333333333 604.1666666666667A239.5833333333333 239.5833333333333 0 0 0 479.1666666666666 843.75L486.2916666666666 843.75A243.1666666666667 243.1666666666667 0 0 0 718.75 606.25A273.625 273.625 0 0 0 637.5 423.9583333333334z" />
    <glyph glyph-name="log-out"
      unicode="&#xEA20;"
      horiz-adv-x="1000" d="M656.25 291.6666666666668V250A140.9583333333333 140.9583333333333 0 0 0 500 93.75H250A140.9583333333333 140.9583333333333 0 0 0 93.75 250V750A140.9583333333333 140.9583333333333 0 0 0 250 906.25H500A140.9583333333333 140.9583333333333 0 0 0 656.25 750V708.3333333333334A31.25 31.25 0 0 0 593.75 708.3333333333334V750C593.75 815.7083333333334 565.7083333333333 843.75 500 843.75H250C184.2916666666667 843.75 156.25 815.7083333333334 156.25 750V250C156.25 184.2916666666668 184.2916666666667 156.25 250 156.25H500C565.7083333333333 156.25 593.75 184.2916666666668 593.75 250V291.6666666666668A31.25 31.25 0 0 0 656.25 291.6666666666668zM903.8333333333331 488.0416666666667A31.2916666666667 31.2916666666667 0 0 1 903.8333333333331 511.9583333333334A32.125 32.125 0 0 1 897.0833333333334 522.125L772.0833333333334 647.125A31.25 31.25 0 0 1 727.9166666666667 602.9583333333334L799.5416666666667 531.2916666666667H333.3333333333333A31.25 31.25 0 0 1 333.3333333333333 468.7916666666666H799.5416666666666L727.9166666666666 397.0833333333334A31.25 31.25 0 1 1 772.0833333333331 352.9166666666667L897.0833333333331 477.9166666666666A32.125 32.125 0 0 1 903.8333333333331 488.0416666666667z" />
    <glyph glyph-name="menu-left-alt"
      unicode="&#xEA21;"
      horiz-adv-x="1000" d="M666.6666666666666 718.75H125A31.25 31.25 0 0 0 125 781.25H666.6666666666666A31.25 31.25 0 0 0 666.6666666666666 718.75zM906.25 500A31.25 31.25 0 0 1 875 531.25H125A31.25 31.25 0 0 1 125 468.75H875A31.25 31.25 0 0 1 906.25 500zM531.25 250A31.25 31.25 0 0 1 500 281.25H125A31.25 31.25 0 0 1 125 218.75H500A31.25 31.25 0 0 1 531.25 250z" />
    <glyph glyph-name="menu"
      unicode="&#xEA22;"
      horiz-adv-x="1000" d="M93.75 750A31.25 31.25 0 0 0 125 781.25H875A31.25 31.25 0 0 0 875 718.75H125A31.25 31.25 0 0 0 93.75 750zM875 531.25H125A31.25 31.25 0 0 1 125 468.75H875A31.25 31.25 0 0 1 875 531.25zM875 281.25H125A31.25 31.25 0 0 1 125 218.75H875A31.25 31.25 0 0 1 875 281.25z" />
    <glyph glyph-name="more-horizontal-circle"
      unicode="&#xEA23;"
      horiz-adv-x="1000" d="M500 52.0833333333334A447.9166666666667 447.9166666666667 0 1 0 947.9166666666666 500A448.4166666666667 448.4166666666667 0 0 0 500 52.0833333333334zM500 885.4166666666666A385.4166666666666 385.4166666666666 0 1 1 885.4166666666666 500A385.8333333333333 385.8333333333333 0 0 1 500 885.4166666666666zM386.25 500A52.0833333333333 52.0833333333333 0 0 1 334.1666666666667 552.0833333333334H333.75A52.0833333333333 52.0833333333333 0 1 1 386.25 500zM552.9166666666666 500A52.0833333333333 52.0833333333333 0 0 1 500.8333333333333 552.0833333333334H500.4166666666666A52.0833333333333 52.0833333333333 0 1 1 552.9166666666666 500zM719.5833333333333 500A52.0833333333333 52.0833333333333 0 0 1 667.5 552.0833333333334H667.0833333333333A52.0833333333333 52.0833333333333 0 1 1 719.5833333333333 500z" />
    <glyph glyph-name="more-horizontal"
      unicode="&#xEA24;"
      horiz-adv-x="1000" d="M167.5 437.5A62.5 62.5 0 0 0 167.0833333333333 562.5H167.5A62.5 62.5 0 0 0 167.5 437.5zM500.8333333333333 437.5A62.5 62.5 0 0 0 500.4166666666666 562.5H500.8333333333333A62.5 62.5 0 0 0 500.8333333333333 437.5zM834.1666666666666 437.5A62.5 62.5 0 0 0 833.7499999999999 562.5H834.1666666666666A62.5 62.5 0 0 0 834.1666666666666 437.5z" />
    <glyph glyph-name="more-vertical"
      unicode="&#xEA25;"
      horiz-adv-x="200" d="M100.9825 825C59.5325 825 25.7324 858.55 25.7324 900C25.7324 941.45 59.082 975 100.482 975H100.9825C142.4325 975 175.9825 941.45 175.9825 900C175.9825 858.55 142.4325 825 100.9825 825zM175.9825 500C175.9825 541.45 142.4325 575 100.9825 575H100.482C59.082 575 25.7324 541.45 25.7324 500C25.7324 458.55 59.5325 425 100.9825 425C142.4325 425 175.9825 458.55 175.9825 500zM175.9825 100C175.9825 141.4500000000001 142.4325 175 100.9825 175H100.482C59.082 175 25.7324 141.4500000000001 25.7324 100C25.7324 58.55 59.5325 25 100.9825 25C142.4325 25 175.9825 58.55 175.9825 100z" />
    <glyph glyph-name="rotate-right"
      unicode="&#xEA26;"
      horiz-adv-x="1000" d="M906.25 833.3333333333334V625A31.25 31.25 0 0 0 875 593.75H666.6666666666666A31.25 31.25 0 0 0 666.6666666666666 656.25H805.4166666666665A343.0833333333333 343.0833333333333 0 1 1 807.8333333333333 347.2083333333334A31.25 31.25 0 1 0 863.7916666666665 319.4583333333335A406.375 406.375 0 1 0 843.7499999999998 716.0833333333335V833.3333333333334A31.25 31.25 0 0 0 906.2499999999998 833.3333333333334z" />
    <glyph glyph-name="search"
      unicode="&#xEA27;"
      horiz-adv-x="1000" d="M897.0833333333334 147.0833333333335L737.0416666666666 307.1250000000001A365.375 365.375 0 1 1 692.875 262.9583333333335L852.9166666666665 102.9166666666666A31.25 31.25 0 0 1 897.0833333333331 147.0833333333333zM156.25 541.6666666666667A302.0833333333333 302.0833333333333 0 1 0 458.3333333333333 239.5833333333334A302.4166666666667 302.4166666666667 0 0 0 156.25 541.6666666666667z" />
    <glyph glyph-name="send-right-icon"
      unicode="&#xEA28;"
      horiz-adv-x="1000" d="M876.0117647058823 608.0541176470588L316.8435294117647 942.4654705882353C241.8923529411765 987.416411764706 150.3717647058823 975.554 89.1464705882353 913.3482352941176C28.2641176470588 851.4364705882354 18.1103529411765 760.2594117647059 63.8947058823529 686.5335294117647L184.8282352941176 491.8282352941176L63.8947058823529 297.1235294117647C18.0613529411765 223.4000000000001 28.2151176470588 132.2235294117647 89.1464705882353 70.3117647058824C125.5682352941176 33.3 172.6682352941176 14.1352941176472 220.7070588235294 14.1352941176472C253.3541176470588 14.1352941176472 286.5005882352941 23.0058823529413 316.8435294117647 41.1941176470588L876.0117647058823 375.6058823529413C917.3823529411764 400.3117647058824 942.0352941176473 443.789411764706 942.0352941176473 491.8282352941176C942.0352941176473 539.8676470588235 917.3823529411764 583.3482352941177 876.0117647058823 608.0541176470588zM838.3117647058823 438.6905882352941L279.1452941176471 104.2764705882354C223.3117647058824 70.9470588235295 170.1182352941176 92.8588235294118 141.5888235294118 121.8764705882353C113.3535294117647 150.6058823529412 92.3835294117647 203.5941176470589 126.3541176470588 258.3470588235295L248.5558823529412 455.1129411764706H513.1135294117647C533.4076470588235 455.1129411764706 549.8782352941176 471.5835294117647 549.8782352941176 491.8776470588235C549.8782352941176 512.1717647058824 533.4076470588235 528.6423529411765 513.1135294117647 528.6423529411765H248.5558823529412L126.3541176470588 725.4076470588236C92.3835294117647 780.1623529411766 113.3047058823529 833.1523529411764 141.5888235294118 861.8782352941176C159.9223529411765 880.505294117647 188.4023529411765 896.2405882352941 221.2458823529412 896.2405882352941C239.53 896.2405882352941 259.1452941176471 891.3882352941176 279.1452941176471 879.4270588235295L838.3117647058823 545.0141176470588C857.2352941176471 533.6905882352942 868.5058823529412 513.8388235294118 868.5058823529412 491.8776470588235C868.5058823529412 469.9170588235295 857.2352941176471 450.0141176470588 838.3117647058823 438.6905882352941z" />
    <glyph glyph-name="sort-vertical"
      unicode="&#xEA29;"
      horiz-adv-x="1000" d="M688.75 438.75A31.2083333333333 31.2083333333333 0 0 0 688.75 394.5833333333334L522.0833333333334 227.9166666666667A31.1666666666667 31.1666666666667 0 0 0 477.9166666666667 227.9166666666667L311.25 394.5833333333334A31.25 31.25 0 0 0 355.4166666666667 438.75L500 294.2083333333334L644.5833333333334 438.75A31.2083333333333 31.2083333333333 0 0 0 688.75 438.75zM355.4166666666667 561.25L500 705.7916666666667L644.5833333333334 561.25A31.25 31.25 0 0 1 688.75 605.4166666666667L522.0833333333334 772.0833333333334A31.2083333333333 31.2083333333333 0 0 1 477.9166666666667 772.0833333333334L311.25 605.4166666666667A31.25 31.25 0 0 1 355.4166666666667 561.25z" />
    <glyph glyph-name="stopwatch"
      unicode="&#xEA2A;"
      horiz-adv-x="1000" d="M733.3333333333334 668.2083333333334L772.1666666666666 707.0833333333333A31.25 31.25 0 0 1 728 751.25L687.25 710.5416666666666A345.4583333333333 345.4583333333333 0 1 1 733.3333333333334 668.2083333333334zM479.1666666666666 156.25A281.25 281.25 0 1 0 760.4166666666666 437.5A281.5833333333333 281.5833333333333 0 0 0 479.1666666666666 156.25zM581.2499999999999 400A31.25 31.25 0 1 0 543.7499999999999 350L460.4166666666666 412.5A31.25 31.25 0 0 0 447.9166666666666 437.5V583.3333333333334A31.25 31.25 0 0 0 510.4166666666666 583.3333333333334V453.125zM343.75 875A31.25 31.25 0 0 0 375 906.25H583.3333333333333A31.25 31.25 0 0 0 583.3333333333333 843.75H375A31.25 31.25 0 0 0 343.75 875z" />
    <glyph glyph-name="times"
      unicode="&#xEA2B;"
      horiz-adv-x="1000" d="M772.0833333333334 272.0833333333334A31.25 31.25 0 1 0 727.9166666666667 227.9166666666669L500 455.7916666666667L272.0833333333333 227.9166666666667A31.25 31.25 0 0 0 227.9166666666667 272.0833333333333L455.7916666666666 500L227.9166666666667 727.9166666666667A31.25 31.25 0 0 0 272.0833333333333 772.0833333333334L500 544.2083333333334L727.9166666666666 772.0833333333334A31.25 31.25 0 0 0 772.0833333333331 727.9166666666667L544.2083333333333 500z" />
    <glyph glyph-name="user-check-bottom"
      unicode="&#xEA2C;"
      horiz-adv-x="1000" d="M458.7083333333333 552.0833333333334A177.0833333333333 177.0833333333333 0 1 0 635.7916666666666 729.1666666666667A177.2916666666666 177.2916666666666 0 0 0 458.7083333333333 552.0833333333334zM458.7083333333333 843.75A114.5833333333333 114.5833333333333 0 1 1 573.2916666666666 729.1666666666667A114.6666666666667 114.6666666666667 0 0 1 458.7083333333333 843.75zM614.5833333333333 125A31.25 31.25 0 0 1 583.3333333333333 156.25H291.6666666666667C225.9583333333333 156.25 197.9166666666667 184.0416666666668 197.9166666666667 249.1666666666668A164.9583333333333 164.9583333333333 0 0 0 375 427.0833333333334H541.6666666666666A162.0833333333333 162.0833333333333 0 0 0 688.7083333333333 358.1250000000001A31.25 31.25 0 1 1 741.2916666666666 391.8750000000001A221.0833333333333 221.0833333333333 0 0 1 541.6666666666666 489.5833333333334H375C198.1666666666667 489.5833333333334 135.4166666666667 360.0833333333334 135.4166666666667 249.1666666666668C135.4166666666667 148.9583333333334 190.9166666666667 93.75 291.6666666666667 93.75H583.3333333333333A31.25 31.25 0 0 1 614.5833333333333 125zM785.9583333333333 116.6666666666668L897.0833333333334 227.9166666666667A31.25 31.25 0 0 1 852.9166666666667 272.0833333333333L763.875 183.0833333333333L730.5416666666666 216.4166666666666A31.25 31.25 0 0 1 686.3750000000001 172.2083333333334L741.6666666666666 116.6666666666668A31.1666666666667 31.1666666666667 0 0 1 785.8333333333333 116.6666666666668z" />
    <glyph glyph-name="user"
      unicode="&#xEA2D;"
      horiz-adv-x="1000" d="M500.375 552.0833333333334A177.0833333333333 177.0833333333333 0 1 0 677.4583333333333 729.1666666666667A177.2916666666666 177.2916666666666 0 0 0 500.375 552.0833333333334zM500.375 843.75A114.5833333333333 114.5833333333333 0 1 1 614.9583333333333 729.1666666666667A114.6666666666667 114.6666666666667 0 0 1 500.375 843.75zM666.6666666666666 93.75H333.3333333333333C232.5 93.75 176.9583333333333 148.9583333333334 176.9583333333333 249.2083333333335C176.9583333333333 360.1250000000001 239.7083333333333 489.5833333333334 416.5416666666667 489.5833333333334H583.2083333333333C760.0416666666666 489.5833333333334 822.7916666666666 360.1250000000001 822.7916666666666 249.2083333333335C822.9166666666666 148.9583333333334 767.375 93.75 666.6666666666666 93.75zM416.6666666666667 427.0833333333334A164.9166666666667 164.9166666666667 0 0 1 239.5833333333333 249.2083333333335C239.5833333333333 184.0416666666668 267.6666666666667 156.25 333.4583333333333 156.25H666.6666666666666C732.4583333333334 156.25 760.5416666666666 184.0416666666668 760.5416666666666 249.2083333333335A164.9166666666667 164.9166666666667 0 0 1 583.3333333333333 427.0833333333334z" />
    <glyph glyph-name="wallet-icon"
      unicode="&#xEA2E;"
      horiz-adv-x="1058.8235294117646" d="M853.8 771.4017647058823V785.9605882352942C853.8 904.49 788.5058823529412 969.784 669.9764705882352 969.784H179.7829411764706C105.4205882352941 969.784 44.9792941176471 909.3429411764706 44.9792941176471 834.98V197.7235294117647C44.9792941176471 79.1941176470589 110.2735294117647 13.9000000000001 228.8029411764706 13.9000000000001H817.035294117647C935.5647058823528 13.9000000000001 1000.8588235294118 79.1941176470589 1000.8588235294118 197.7235294117647V589.8823529411765C1000.8588235294118 695.5194117647059 948.9999999999998 758.8529411764706 853.8 771.4017647058823zM927.3294117647058 308.0176470588235H743.5058823529412C696.2058823529411 308.0176470588235 657.7235294117647 346.5 657.7235294117647 393.8058823529412C657.7235294117647 441.1076470588236 696.2058823529411 479.5882352941177 743.5058823529412 479.5882352941177H927.3294117647058V308.0176470588235zM179.7829411764706 896.2547058823529H669.9764705882352C747.2823529411764 896.2547058823529 780.2705882352941 863.2641176470588 780.2705882352941 785.9605882352942V773.7052941176471H179.7829411764706C146.0088235294118 773.7052941176471 118.5088235294118 801.2052941176471 118.5088235294118 834.98C118.5088235294118 868.7547058823529 146.0088235294118 896.2547058823529 179.7829411764706 896.2547058823529zM817.035294117647 87.429411764706H228.8029411764706C151.4988235294118 87.429411764706 118.5088235294118 120.4235294117648 118.5088235294118 197.7235294117647V714.9323529411765C136.8911764705882 705.5205882352941 157.7247058823529 700.1764705882354 179.7829411764706 700.1764705882354H817.035294117647C894.3411764705882 700.1764705882354 927.3294117647058 667.1858823529412 927.3294117647058 589.8823529411765V553.1176470588235H743.5058823529412C655.6647058823529 553.1176470588235 584.1947058823529 481.6464705882353 584.1947058823529 393.8058823529412C584.1947058823529 305.9588235294118 655.6647058823529 234.4882352941177 743.5058823529412 234.4882352941177H927.3294117647058V197.7235294117647C927.3294117647058 120.4235294117648 894.3411764705882 87.429411764706 817.035294117647 87.429411764706zM768.5117647058823 442.8235294117648H769C796.1058823529411 442.8235294117648 818.0176470588235 420.8623529411765 818.0176470588235 393.8058823529412C818.0176470588235 366.7470588235294 796.1058823529411 344.7823529411766 769 344.7823529411766C741.9411764705882 344.7823529411766 719.7352941176471 366.7470588235294 719.7352941176471 393.8058823529412C719.7352941176471 420.8623529411765 741.4529411764705 442.8235294117648 768.5117647058823 442.8235294117648z" />
  </font>
</defs>
</svg>
