<svg xmlns="http://www.w3.org/2000/svg" xmlns:xlink="http://www.w3.org/1999/xlink" width="0" height="0" style="display:none;"><symbol viewBox="0 0 24 24" id="ico-ai">
<path d="M20.31 6.93079C20.2116 6.93079 20.1279 6.91169 20.059 6.87351C19.9902 6.83532 19.936 6.7685 19.8967 6.67303L19.0406 4.72554L16.8856 3.80907C16.7872 3.77088 16.7183 3.71838 16.679 3.65155C16.6396 3.58473 16.6199 3.50358 16.6199 3.40811C16.6199 3.31265 16.6396 3.2315 16.679 3.16468C16.7183 3.09785 16.7872 3.04535 16.8856 3.00716L19.0406 2.11933L19.8967 0.257757C19.936 0.162291 19.9902 0.0954654 20.059 0.0572792C20.1279 0.0190931 20.2116 0 20.31 0C20.4084 0 20.492 0.0190931 20.5609 0.0572792C20.6298 0.0954654 20.6839 0.162291 20.7232 0.257757L21.5793 2.11933L23.7343 3.00716C23.8327 3.04535 23.9016 3.09785 23.941 3.16468C23.9803 3.2315 24 3.31265 24 3.40811C24 3.50358 23.9803 3.58473 23.941 3.65155C23.9016 3.71838 23.8327 3.77088 23.7343 3.80907L21.5793 4.72554L20.7232 6.67303C20.6839 6.7685 20.6298 6.83532 20.5609 6.87351C20.492 6.91169 20.4084 6.93079 20.31 6.93079ZM20.31 24C20.2312 24 20.1525 23.9809 20.0738 23.9427C19.9951 23.9045 19.936 23.8377 19.8967 23.7422L19.0406 21.8807L16.9151 20.9928C16.8167 20.9547 16.7478 20.9021 16.7085 20.8353C16.6691 20.7685 16.6494 20.6873 16.6494 20.5919C16.6494 20.4964 16.6691 20.4153 16.7085 20.3484C16.7478 20.2816 16.8167 20.2291 16.9151 20.1909L19.0406 19.3031L19.8967 17.327C19.936 17.2315 19.9902 17.1647 20.059 17.1265C20.1279 17.0883 20.2116 17.0692 20.31 17.0692C20.4084 17.0692 20.492 17.0883 20.5609 17.1265C20.6298 17.1647 20.6839 17.2315 20.7232 17.327L21.5793 19.3031L23.7048 20.1909C23.8032 20.2291 23.8721 20.2816 23.9114 20.3484C23.9508 20.4153 23.9705 20.4964 23.9705 20.5919C23.9705 20.6873 23.9508 20.7685 23.9114 20.8353C23.8721 20.9021 23.8032 20.9547 23.7048 20.9928L21.5793 21.8807L20.7232 23.7422C20.6839 23.8377 20.6248 23.9045 20.5461 23.9427C20.4674 23.9809 20.3887 24 20.31 24ZM7.35055 19.0453C7.19311 19.0453 7.04059 19.0024 6.89299 18.9165C6.74539 18.8305 6.63223 18.7112 6.55351 18.5585L4.63469 14.5776L0.501845 12.7733C0.344403 12.6969 0.221402 12.5871 0.132841 12.4439C0.0442804 12.3007 0 12.1527 0 12C0 11.8473 0.0442804 11.6993 0.132841 11.5561C0.221402 11.4129 0.344403 11.3031 0.501845 11.2267L4.63469 9.42243L6.55351 5.47017C6.63223 5.29833 6.74539 5.16945 6.89299 5.08353C7.04059 4.99761 7.19311 4.95465 7.35055 4.95465C7.508 4.95465 7.66052 4.99761 7.80812 5.08353C7.95572 5.16945 8.06888 5.28878 8.1476 5.44153L10.0959 9.42243L14.1993 11.2267C14.3764 11.3031 14.5092 11.4129 14.5978 11.5561C14.6863 11.6993 14.7306 11.8473 14.7306 12C14.7306 12.1527 14.6863 12.3007 14.5978 12.4439C14.5092 12.5871 14.3764 12.6969 14.1993 12.7733L10.0959 14.5776L8.1476 18.5585C8.06888 18.7303 7.95572 18.8544 7.80812 18.9308C7.66052 19.0072 7.508 19.0453 7.35055 19.0453Z" fill="white"></path>
</symbol><symbol viewBox="0 0 34 34" id="ico-angle-down-icon">
<path d="M16.9998 17.7498C16.8078 17.7498 16.6157 17.6768 16.4697 17.5298L9.46975 10.5298C9.17675 10.2368 9.17675 9.76177 9.46975 9.46877C9.76275 9.17577 10.2378 9.17577 10.5308 9.46877L17.0008 15.9387L23.4707 9.46877C23.7637 9.17577 24.2388 9.17577 24.5318 9.46877C24.8248 9.76177 24.8248 10.2368 24.5318 10.5298L17.5318 17.5298C17.3838 17.6768 17.1918 17.7498 16.9998 17.7498Z" fill="#FEFEFE"></path>
<g filter="url(#filter0_d_144_2825)">
<path d="M5 15.2222V18.7778V23C5 24.1046 5.89543 25 7 25H11.2222H16.5556M19.2222 1H27C28.1046 1 29 1.89543 29 3V10.7778" stroke="white"></path>
</g>
<defs>
<filter id="filter0_d_144_2825" x="0.5" y="0.5" width="33" height="33" filterunits="userSpaceOnUse" color-interpolation-filters="sRGB">
<feflood flood-opacity="0" result="BackgroundImageFix"></feflood>
<fecolormatrix in="SourceAlpha" type="matrix" values="0 0 0 0 0 0 0 0 0 0 0 0 0 0 0 0 0 0 127 0" result="hardAlpha"></fecolormatrix>
<feoffset dy="4"></feoffset>
<fegaussianblur stddeviation="2"></fegaussianblur>
<fecomposite in2="hardAlpha" operator="out"></fecomposite>
<fecolormatrix type="matrix" values="0 0 0 0 0 0 0 0 0 0 0 0 0 0 0 0 0 0 0.25 0"></fecolormatrix>
<feblend mode="normal" in2="BackgroundImageFix" result="effect1_dropShadow_144_2825"></feblend>
<feblend mode="normal" in="SourceGraphic" in2="effect1_dropShadow_144_2825" result="shape"></feblend>
</filter>
</defs>
</symbol><symbol viewBox="0 0 24 24" id="ico-angle-down-small">

  <path id="angle-down-small" fill="#000000" d="M12,14.75a.744.744,0,0,1-.53-.22l-4-4A.75.75,0,0,1,8.53,9.47L12,12.939,15.47,9.47a.75.75,0,0,1,1.06,1.06l-4,4A.744.744,0,0,1,12,14.75Z"></path>
</symbol><symbol viewBox="0 0 24 24" id="ico-angle-down">

  <path id="angle-down" fill="#000000" d="M12,16.75a.744.744,0,0,1-.53-.22l-7-7A.75.75,0,0,1,5.53,8.47L12,14.939,18.47,8.47a.75.75,0,0,1,1.06,1.06l-7,7A.744.744,0,0,1,12,16.75Z"></path>
</symbol><symbol viewBox="0 0 24 24" id="ico-angle-left-small">

  <path id="angle-left-small" fill="#000000" d="M14,16.75a.744.744,0,0,1-.53-.22l-4-4a.749.749,0,0,1,0-1.06l4-4a.75.75,0,0,1,1.06,1.06L11.061,12l3.469,3.47A.75.75,0,0,1,14,16.75Z"></path>
</symbol><symbol viewBox="0 0 24 24" id="ico-angle-left">

  <path id="angle-left" fill="#000000" d="M15,19.75a.744.744,0,0,1-.53-.22l-7-7a.749.749,0,0,1,0-1.06l7-7a.75.75,0,0,1,1.06,1.06L9.061,12l6.469,6.47A.75.75,0,0,1,15,19.75Z"></path>
</symbol><symbol viewBox="0 0 24 24" id="ico-angle-right-small">

  <path id="angle-right-small" fill="#000000" d="M10,16.75a.75.75,0,0,1-.53-1.28L12.939,12,9.47,8.53a.75.75,0,0,1,1.06-1.06l4,4a.749.749,0,0,1,0,1.06l-4,4A.744.744,0,0,1,10,16.75Z"></path>
</symbol><symbol viewBox="0 0 24 24" id="ico-angle-right">

  <path id="angle-right" fill="#000000" d="M9,19.75a.75.75,0,0,1-.53-1.28L14.939,12,8.47,5.53A.75.75,0,0,1,9.53,4.47l7,7a.749.749,0,0,1,0,1.06l-7,7A.744.744,0,0,1,9,19.75Z"></path>
</symbol><symbol viewBox="0 0 24 24" id="ico-angle-up-small">

  <path id="angle-up-small" fill="#000000" d="M16,14.75a.744.744,0,0,1-.53-.22L12,11.061,8.53,14.53a.75.75,0,0,1-1.06-1.06l4-4a.749.749,0,0,1,1.06,0l4,4A.75.75,0,0,1,16,14.75Z"></path>
</symbol><symbol viewBox="0 0 24 24" id="ico-angle-up">

  <path id="angle-up" fill="#000000" d="M19,15.75a.744.744,0,0,1-.53-.22L12,9.061,5.53,15.53a.75.75,0,0,1-1.06-1.06l7-7a.749.749,0,0,1,1.06,0l7,7A.75.75,0,0,1,19,15.75Z"></path>
</symbol><symbol viewBox="0 0 24 24" id="ico-angles-down-small">

  <path id="angles-down-small" fill="#000000" d="M16.53,12.47a.749.749,0,0,1,0,1.06l-4,4a.748.748,0,0,1-1.06,0l-4-4a.75.75,0,0,1,1.06-1.06L12,15.939l3.47-3.469A.749.749,0,0,1,16.53,12.47Zm-5.06-.94a.748.748,0,0,0,1.06,0l4-4a.75.75,0,0,0-1.06-1.06L12,9.939,8.53,6.47A.75.75,0,0,0,7.47,7.53Z"></path>
</symbol><symbol viewBox="0 0 24 24" id="ico-angles-down">

  <path id="angles-down" fill="#000000" d="M19.53,11.47a.749.749,0,0,1,0,1.06l-7,7a.748.748,0,0,1-1.06,0l-7-7a.75.75,0,0,1,1.06-1.06L12,17.939l6.47-6.469A.749.749,0,0,1,19.53,11.47Zm-8.06,1.06a.748.748,0,0,0,1.06,0l7-7a.75.75,0,0,0-1.06-1.06L12,10.939,5.53,4.47A.75.75,0,0,0,4.47,5.53Z"></path>
</symbol><symbol viewBox="0 0 24 24" id="ico-angles-left-small">

  <path id="angles-left-small" fill="#000000" d="M11.53,8.53,8.061,12l3.469,3.47a.75.75,0,1,1-1.06,1.06l-4-4a.749.749,0,0,1,0-1.06l4-4a.75.75,0,0,1,1.06,1.06ZM14.061,12,17.53,8.53a.75.75,0,0,0-1.06-1.06l-4,4a.749.749,0,0,0,0,1.06l4,4a.75.75,0,0,0,1.06-1.06Z"></path>
</symbol><symbol viewBox="0 0 24 24" id="ico-angles-left">

  <path id="angles-left" fill="#000000" d="M12,19.75a.744.744,0,0,1-.53-.22l-7-7a.749.749,0,0,1,0-1.06l7-7a.75.75,0,0,1,1.06,1.06L6.061,12l6.469,6.47A.75.75,0,0,1,12,19.75Zm7.53-.22a.749.749,0,0,0,0-1.06L13.061,12,19.53,5.53a.75.75,0,0,0-1.06-1.06l-7,7a.749.749,0,0,0,0,1.06l7,7a.748.748,0,0,0,1.06,0Z"></path>
</symbol><symbol viewBox="0 0 24 24" id="ico-angles-right-small">

  <path id="angles-right-small" fill="#000000" d="M17.53,12.53l-4,4a.75.75,0,0,1-1.06-1.06L15.939,12,12.47,8.53a.75.75,0,0,1,1.06-1.06l4,4A.749.749,0,0,1,17.53,12.53Zm-10-5.06A.75.75,0,0,0,6.47,8.53L9.939,12,6.47,15.47a.75.75,0,1,0,1.06,1.06l4-4a.749.749,0,0,0,0-1.06Z"></path>
</symbol><symbol viewBox="0 0 24 24" id="ico-angles-right">

  <path id="angles-right" fill="#000000" d="M19.53,12.53l-7,7a.75.75,0,0,1-1.06-1.06L17.939,12,11.47,5.53a.75.75,0,0,1,1.06-1.06l7,7A.749.749,0,0,1,19.53,12.53Zm-7-1.06-7-7A.75.75,0,0,0,4.47,5.53L10.939,12,4.47,18.47a.75.75,0,1,0,1.06,1.06l7-7A.749.749,0,0,0,12.53,11.47Z"></path>
</symbol><symbol viewBox="0 0 24 24" id="ico-angles-up-small">

  <path id="angles-up-small" fill="#000000" d="M7.47,11.53a.749.749,0,0,1,0-1.06l4-4a.749.749,0,0,1,1.06,0l4,4a.75.75,0,1,1-1.06,1.06L12,8.061,8.53,11.53A.749.749,0,0,1,7.47,11.53Zm5.06.94a.749.749,0,0,0-1.06,0l-4,4a.75.75,0,0,0,1.06,1.06L12,14.061l3.47,3.469a.75.75,0,0,0,1.06-1.06Z"></path>
</symbol><symbol viewBox="0 0 24 24" id="ico-angles-up">

  <path id="angles-up" fill="#000000" d="M4.47,12.53a.749.749,0,0,1,0-1.06l7-7a.749.749,0,0,1,1.06,0l7,7a.75.75,0,1,1-1.06,1.06L12,6.061,5.53,12.53A.749.749,0,0,1,4.47,12.53Zm8.06-1.06a.749.749,0,0,0-1.06,0l-7,7a.75.75,0,0,0,1.06,1.06L12,13.061l6.47,6.469a.75.75,0,0,0,1.06-1.06Z"></path>
</symbol><symbol viewBox="0 0 42 42" id="ico-back-icon">
<g filter="url(#filter0_d_142_12389)">
<path d="M5 19.963V24.7037V31C5 32.1046 5.89543 33 7 33H13.2963H20.4074M23.963 1H35C36.1046 1 37 1.89543 37 3V14.037" stroke="white"></path>
</g>
<path d="M29.1252 17.0001C29.1252 17.3451 28.8452 17.6251 28.5002 17.6251H15.0094L19.7761 22.3918C20.0202 22.636 20.0202 23.0318 19.7761 23.276C19.6544 23.3976 19.4944 23.4593 19.3344 23.4593C19.1744 23.4593 19.0143 23.3985 18.8927 23.276L13.0593 17.4426C13.0018 17.3851 12.9561 17.3161 12.9245 17.2394C12.8611 17.0869 12.8611 16.9144 12.9245 16.7619C12.9561 16.6852 13.0018 16.616 13.0593 16.5585L18.8927 10.7251C19.1368 10.481 19.5327 10.481 19.7769 10.7251C20.021 10.9693 20.021 11.3651 19.7769 11.6093L15.0102 16.376H28.5002C28.8452 16.3751 29.1252 16.6551 29.1252 17.0001Z" fill="#FEFEFE"></path>
<defs>
<filter id="filter0_d_142_12389" x="0.5" y="0.5" width="41" height="41" filterunits="userSpaceOnUse" color-interpolation-filters="sRGB">
<feflood flood-opacity="0" result="BackgroundImageFix"></feflood>
<fecolormatrix in="SourceAlpha" type="matrix" values="0 0 0 0 0 0 0 0 0 0 0 0 0 0 0 0 0 0 127 0" result="hardAlpha"></fecolormatrix>
<feoffset dy="4"></feoffset>
<fegaussianblur stddeviation="2"></fegaussianblur>
<fecomposite in2="hardAlpha" operator="out"></fecomposite>
<fecolormatrix type="matrix" values="0 0 0 0 0 0 0 0 0 0 0 0 0 0 0 0 0 0 0.25 0"></fecolormatrix>
<feblend mode="normal" in2="BackgroundImageFix" result="effect1_dropShadow_142_12389"></feblend>
<feblend mode="normal" in="SourceGraphic" in2="effect1_dropShadow_142_12389" result="shape"></feblend>
</filter>
</defs>
</symbol><symbol viewBox="0 0 24 24" id="ico-calendar">

  <path id="calendar" fill="#000000" d="M18,3.75H16.75V3a.75.75,0,0,0-1.5,0v.75H8.75V3a.75.75,0,0,0-1.5,0v.75H6A3.383,3.383,0,0,0,2.25,7.5V18A3.383,3.383,0,0,0,6,21.75H18A3.383,3.383,0,0,0,21.75,18V7.5A3.383,3.383,0,0,0,18,3.75ZM6,5.25H7.25V6a.75.75,0,0,0,1.5,0V5.25h6.5V6a.75.75,0,0,0,1.5,0V5.25H18c1.577,0,2.25.673,2.25,2.25v.75H3.75V7.5C3.75,5.923,4.423,5.25,6,5.25Zm12,15H6c-1.577,0-2.25-.673-2.25-2.25V9.75h16.5V18C20.25,19.577,19.577,20.25,18,20.25ZM9.02,13a1,1,0,1,1-1.01-1h.01A1,1,0,0,1,9.02,13Zm4,0a1,1,0,1,1-1.01-1h.01A1,1,0,0,1,13.02,13Zm4,0a1,1,0,1,1-1.01-1h.01A1,1,0,0,1,17.02,13Zm-8,4a1,1,0,1,1-1.01-1h.01A1,1,0,0,1,9.02,17Zm4,0a1,1,0,1,1-1.01-1h.01A1,1,0,0,1,13.02,17Zm4,0a1,1,0,1,1-1.01-1h.01A1,1,0,0,1,17.02,17Z"></path>
</symbol><symbol viewBox="0 0 12 8" id="ico-caret-down">
<path d="M4.69774 7.396L0.317854 2.2019C-0.418146 1.3289 0.205789 0 1.35179 0H10.6477C11.7937 0 12.4176 1.3299 11.6816 2.2019L7.30174 7.396C6.62274 8.201 5.37674 8.201 4.69774 7.396Z" fill="#FEFEFE"></path>
</symbol><symbol viewBox="0 0 12 8" id="ico-caret-up">
<path d="M7.30226 0.604004L11.6821 5.7981C12.4181 6.6711 11.7942 8 10.6482 8H1.35231C0.206312 8 -0.417623 6.6701 0.318377 5.7981L4.69826 0.604004C5.37726 -0.200996 6.62326 -0.200996 7.30226 0.604004Z" fill="#FEFEFE"></path>
</symbol><symbol viewBox="0 0 34 34" id="ico-edit-icon">
<path d="M1 19.963V24.7037V32C1 32.5523 1.44771 33 2 33H9.2963H16.4074M19.963 1H32C32.5523 1 33 1.44772 33 2V14.037" stroke="white"></path>
<path d="M25.125 13.0256C25.1258 12.4123 24.8876 11.8356 24.4534 11.4023L22.5967 9.54572C22.1626 9.11238 21.5876 8.87319 20.9734 8.87403C20.3601 8.87486 19.7842 9.11481 19.3525 9.54897L9.0575 19.8915C8.94 20.009 8.875 20.1674 8.875 20.3324V24.499C8.875 24.844 9.155 25.124 9.5 25.124H13.6667C13.8317 25.124 13.9909 25.0582 14.1075 24.9423L24.45 14.6465C24.885 14.2149 25.1242 13.639 25.125 13.0256ZM13.4083 23.8748H10.125V20.5916L17.6191 13.0632L20.9376 16.3806L13.4083 23.8748ZM23.5684 13.7615L21.8234 15.499L18.5009 12.1774L20.2383 10.4315C20.435 10.234 20.6967 10.1257 20.9758 10.1248H20.9766C21.255 10.1248 21.5167 10.2331 21.7142 10.4298L23.5708 12.2865C23.7675 12.484 23.8758 12.7457 23.8758 13.0248C23.875 13.3032 23.7659 13.5649 23.5684 13.7615ZM25.125 24.4998C25.125 24.8448 24.845 25.1248 24.5 25.1248H18.6667C18.3217 25.1248 18.0417 24.8448 18.0417 24.4998C18.0417 24.1548 18.3217 23.8748 18.6667 23.8748H24.5C24.845 23.8748 25.125 24.1548 25.125 24.4998Z" fill="#FEFEFE"></path>
</symbol><symbol viewBox="0 0 24 24" id="ico-envelope-open">

  <path id="envelope-open" fill="#000000" d="M18,21.75H6A3.383,3.383,0,0,1,2.25,18V9.732A3.246,3.246,0,0,1,3.7,7.028L9.92,2.88a3.741,3.741,0,0,1,4.16,0L20.3,7.028a3.246,3.246,0,0,1,1.447,2.7V18A3.383,3.383,0,0,1,18,21.75Zm-6-18a2.243,2.243,0,0,0-1.248.379L4.529,8.276A1.747,1.747,0,0,0,3.75,9.732V18c0,1.577.673,2.25,2.25,2.25H18c1.577,0,2.25-.673,2.25-2.25V9.732a1.747,1.747,0,0,0-.779-1.456L13.248,4.128A2.243,2.243,0,0,0,12,3.749Zm.857,11.191,4.584-3.334a.749.749,0,0,0-.882-1.212l-4.583,3.333a.185.185,0,0,1-.217,0L7.175,10.394a.75.75,0,1,0-.883,1.212l4.584,3.334a1.68,1.68,0,0,0,1.981,0Z"></path>
</symbol><symbol viewBox="0 0 24 24" id="ico-eye-slash">

  <path id="eye-slash" fill="#000000" d="M21.229,13.868C19.913,16.063,16.961,19.75,12,19.75a9.343,9.343,0,0,1-2.826-.435.75.75,0,0,1,.453-1.43A7.856,7.856,0,0,0,12,18.25c4.222,0,6.79-3.23,7.944-5.156a2.105,2.105,0,0,0,0-2.186A13.488,13.488,0,0,0,18.721,9.18a.75.75,0,0,1,1.154-.959,15.163,15.163,0,0,1,1.358,1.916A3.6,3.6,0,0,1,21.229,13.868ZM10.063,15,3.53,21.53a.75.75,0,0,1-1.06-1.06L5.645,17.3a14.481,14.481,0,0,1-2.876-3.429,3.6,3.6,0,0,1,0-3.734C4.087,7.937,7.039,4.25,12,4.25a9.442,9.442,0,0,1,5.155,1.534L20.47,2.47a.75.75,0,0,1,1.06,1.06L10.065,15v0Zm-.454-1.667,3.722-3.723A2.705,2.705,0,0,0,12,9.25,2.752,2.752,0,0,0,9.251,12,2.705,2.705,0,0,0,9.609,13.331Zm-2.9,2.9,1.812-1.812A4.185,4.185,0,0,1,7.751,12,4.255,4.255,0,0,1,12,7.75a4.182,4.182,0,0,1,2.421.768l1.631-1.63A7.926,7.926,0,0,0,12,5.75c-4.222,0-6.79,3.23-7.944,5.156a2.105,2.105,0,0,0,0,2.186A12.847,12.847,0,0,0,6.707,16.233Zm8-3.8a2.746,2.746,0,0,1-2.272,2.274.75.75,0,1,0,.228,1.482,4.2,4.2,0,0,0,3.526-3.526.75.75,0,0,0-1.482-.23Z"></path>
</symbol><symbol viewBox="0 0 18 19" id="ico-file-text-edit">
<path d="M9.75 3V0.75L14.25 5.25H12C10.42 5.25 9.75 4.58 9.75 3ZM14.9099 9.70999L8.93994 15.72C8.65994 16 8.5 16.38 8.5 16.78V17.7C8.5 17.87 8.36995 18 8.19995 18H3C1 18 0 17 0 15V3C0 1 1 0 3 0H8.25V3C8.25 5.42 9.58 6.75 12 6.75H15V9.5C15 9.58 14.9699 9.65999 14.9099 9.70999ZM8.75 13C8.75 12.586 8.414 12.25 8 12.25H4C3.586 12.25 3.25 12.586 3.25 13C3.25 13.414 3.586 13.75 4 13.75H8C8.414 13.75 8.75 13.414 8.75 13ZM11.75 9C11.75 8.586 11.414 8.25 11 8.25H4C3.586 8.25 3.25 8.586 3.25 9C3.25 9.414 3.586 9.75 4 9.75H11C11.414 9.75 11.75 9.414 11.75 9ZM10 16.78V19H12.22L16.22 15.02L13.98 12.78L10 16.78ZM17.74 12.25L16.75 11.26C16.4 10.91 15.84 10.91 15.49 11.26L14.6799 12.08L16.9199 14.32L17.74 13.51C18.09 13.16 18.09 12.6 17.74 12.25Z" fill="#FEFEFE"></path>
</symbol><symbol viewBox="0 0 24 24" id="ico-filter">

  <path id="filter" fill="#000000" d="M14,21.75a.753.753,0,0,1-.45-.15l-4-3a.75.75,0,0,1-.3-.6V14a.747.747,0,0,0-.22-.531L3.909,8.348A2.235,2.235,0,0,1,3.25,6.757V4.5A2.253,2.253,0,0,1,5.5,2.25h13A2.253,2.253,0,0,1,20.75,4.5V6.757a2.235,2.235,0,0,1-.659,1.591L14.97,13.469a.747.747,0,0,0-.22.531v7a.75.75,0,0,1-.75.75Zm-3.25-4.125,2.5,1.875V14a2.235,2.235,0,0,1,.659-1.591L19.03,7.288a.745.745,0,0,0,.22-.531V4.5a.751.751,0,0,0-.75-.75H5.5a.751.751,0,0,0-.75.75V6.757a.745.745,0,0,0,.22.531l5.121,5.121A2.235,2.235,0,0,1,10.75,14Z"></path>
</symbol><symbol viewBox="0 0 20 18" id="ico-image">
<path d="M16 0.25H4C1.582 0.25 0.25 1.582 0.25 4V14C0.25 16.418 1.582 17.75 4 17.75H16C18.418 17.75 19.75 16.418 19.75 14V4C19.75 1.582 18.418 0.25 16 0.25ZM4 1.75H16C17.577 1.75 18.25 2.423 18.25 4V11.25L13.71 6.70996C13.32 6.31996 12.68 6.31996 12.29 6.70996L7.34998 11.6499C7.15998 11.8399 6.84002 11.8399 6.65002 11.6499L5.70996 10.71C5.31996 10.32 4.68004 10.32 4.29004 10.71L1.75 13.25V4C1.75 2.423 2.423 1.75 4 1.75ZM4.75 6C4.75 5.31 5.30404 4.75 5.99304 4.75H6.00305C6.69205 4.75 7.25098 5.31 7.25098 6C7.25098 6.69 6.69305 7.25 6.00305 7.25C5.31405 7.25 4.75 6.69 4.75 6Z" fill="#FEFEFE"></path>
</symbol><symbol viewBox="0 0 24 24" id="ico-info-circle">

  <path id="info-circle" fill="#000000" d="M12,22.75A10.75,10.75,0,1,1,22.75,12,10.762,10.762,0,0,1,12,22.75Zm0-20A9.25,9.25,0,1,0,21.25,12,9.26,9.26,0,0,0,12,2.75Zm.75,13.75V11.929a.75.75,0,0,0-1.5,0V16.5a.75.75,0,0,0,1.5,0Zm.27-8a1,1,0,0,0-1-1h-.01a1,1,0,1,0,1.01,1Z"></path>
</symbol><symbol viewBox="0 0 18 16" id="ico-layout-web-12">
<path d="M0.300049 6.75H7.94995C8.11595 6.75 8.25 6.88405 8.25 7.05005V9.94995C8.25 10.116 8.11595 10.25 7.94995 10.25H0.300049C0.134049 10.25 0 10.116 0 9.94995V7.05005C0 6.88405 0.134049 6.75 0.300049 6.75ZM0 12.05V13C0 15 1 16 3 16H7.94995C8.11595 16 8.25 15.866 8.25 15.7V12.05C8.25 11.884 8.11595 11.75 7.94995 11.75H0.300049C0.134049 11.75 0 11.884 0 12.05ZM15 0H3C1 0 0 1 0 3V4.94995C0 5.11595 0.134049 5.25 0.300049 5.25H17.7C17.866 5.25 18 5.11595 18 4.94995V3C18 1 17 0 15 0ZM9.75 7.05005V9.94995C9.75 10.116 9.88405 10.25 10.05 10.25H17.7C17.866 10.25 18 10.116 18 9.94995V7.05005C18 6.88405 17.866 6.75 17.7 6.75H10.05C9.88405 6.75 9.75 6.88405 9.75 7.05005ZM9.75 12.05V15.7C9.75 15.866 9.88405 16 10.05 16H15C17 16 18 15 18 13V12.05C18 11.884 17.866 11.75 17.7 11.75H10.05C9.88405 11.75 9.75 11.884 9.75 12.05Z" fill="#FEFEFE"></path>
</symbol><symbol viewBox="0 0 24 24" id="ico-lightbulb">

  <path id="lightbulb" fill="#000000" d="M11.713,2.253A7.249,7.249,0,0,0,4.25,9.5a8.086,8.086,0,0,0,2.271,5.263A3.735,3.735,0,0,1,7.75,17.322V18A3.551,3.551,0,0,0,11.5,21.75,3.55,3.55,0,0,0,15.251,18v-.683A3.633,3.633,0,0,1,16.436,14.8a7.912,7.912,0,0,0,2.313-5.373A7.35,7.35,0,0,0,11.713,2.253Zm-.213,18A2.067,2.067,0,0,1,9.25,18v-.25h4.5V18A2.068,2.068,0,0,1,11.5,20.25Zm3.8-6.425a5.846,5.846,0,0,0-1.422,2.425H12.25V13.311l1.78-1.781a.75.75,0,0,0-1.06-1.06L11.5,11.939,10.03,10.47a.75.75,0,0,0-1.06,1.06l1.78,1.781V16.25H9.121a6.074,6.074,0,0,0-1.459-2.462A6.673,6.673,0,0,1,5.75,9.5,5.75,5.75,0,0,1,11.5,3.75l.171,0a5.836,5.836,0,0,1,5.579,5.7A6.567,6.567,0,0,1,15.3,13.825Z"></path>
</symbol><symbol viewBox="0 0 24 24" id="ico-log-out">

  <path id="log-out" fill="#000000" d="M15.75,17v1A3.383,3.383,0,0,1,12,21.75H6A3.383,3.383,0,0,1,2.25,18V6A3.383,3.383,0,0,1,6,2.25h6A3.383,3.383,0,0,1,15.75,6V7a.75.75,0,0,1-1.5,0V6c0-1.577-.673-2.25-2.25-2.25H6c-1.577,0-2.25.673-2.25,2.25V18c0,1.577.673,2.25,2.25,2.25h6c1.577,0,2.25-.673,2.25-2.25V17a.75.75,0,0,1,1.5,0Zm5.942-4.713a.751.751,0,0,0,0-.574.771.771,0,0,0-.162-.244l-3-3a.75.75,0,0,0-1.06,1.06l1.719,1.72H8a.75.75,0,0,0,0,1.5H19.189L17.47,14.47a.75.75,0,1,0,1.06,1.06l3-3A.771.771,0,0,0,21.692,12.287Z"></path>
</symbol><symbol viewBox="0 0 24 24" id="ico-menu-left-alt">

  <path id="menu-left-alt" fill="#000000" d="M16,6.75H3a.75.75,0,0,1,0-1.5H16a.75.75,0,0,1,0,1.5ZM21.75,12a.75.75,0,0,0-.75-.75H3a.75.75,0,0,0,0,1.5H21A.75.75,0,0,0,21.75,12Zm-9,6a.75.75,0,0,0-.75-.75H3a.75.75,0,0,0,0,1.5h9A.75.75,0,0,0,12.75,18Z"></path>
</symbol><symbol viewBox="0 0 24 24" id="ico-menu">

  <path id="menu" fill="#000000" d="M2.25,6A.75.75,0,0,1,3,5.25H21a.75.75,0,0,1,0,1.5H3A.75.75,0,0,1,2.25,6ZM21,11.25H3a.75.75,0,0,0,0,1.5H21a.75.75,0,0,0,0-1.5Zm0,6H3a.75.75,0,0,0,0,1.5H21a.75.75,0,0,0,0-1.5Z"></path>
</symbol><symbol viewBox="0 0 24 24" id="ico-more-horizontal-circle">

  <path id="more-horizontal-circle" fill="#000000" d="M12,22.75A10.75,10.75,0,1,1,22.75,12,10.762,10.762,0,0,1,12,22.75Zm0-20A9.25,9.25,0,1,0,21.25,12,9.26,9.26,0,0,0,12,2.75ZM9.27,12a1.25,1.25,0,0,0-1.25-1.25H8.01A1.25,1.25,0,1,0,9.27,12Zm4,0a1.25,1.25,0,0,0-1.25-1.25h-.01A1.25,1.25,0,1,0,13.27,12Zm4,0a1.25,1.25,0,0,0-1.25-1.25h-.01A1.25,1.25,0,1,0,17.27,12Z"></path>
</symbol><symbol viewBox="0 0 24 24" id="ico-more-horizontal">

  <path id="more-horizontal" fill="#000000" d="M4.02,13.5a1.5,1.5,0,0,1-.01-3h.01a1.5,1.5,0,0,1,0,3Zm8,0a1.5,1.5,0,0,1-.01-3h.01a1.5,1.5,0,0,1,0,3Zm8,0a1.5,1.5,0,0,1-.01-3h.01a1.5,1.5,0,0,1,0,3Z"></path>
</symbol><symbol viewBox="0 0 4 20" id="ico-more-vertical">
<path d="M2.01965 3.5C1.19065 3.5 0.514648 2.829 0.514648 2C0.514648 1.171 1.18164 0.5 2.00964 0.5H2.01965C2.84865 0.5 3.51965 1.171 3.51965 2C3.51965 2.829 2.84865 3.5 2.01965 3.5ZM3.51965 10C3.51965 9.171 2.84865 8.5 2.01965 8.5H2.00964C1.18164 8.5 0.514648 9.171 0.514648 10C0.514648 10.829 1.19065 11.5 2.01965 11.5C2.84865 11.5 3.51965 10.829 3.51965 10ZM3.51965 18C3.51965 17.171 2.84865 16.5 2.01965 16.5H2.00964C1.18164 16.5 0.514648 17.171 0.514648 18C0.514648 18.829 1.19065 19.5 2.01965 19.5C2.84865 19.5 3.51965 18.829 3.51965 18Z" fill="#FEFEFE"></path>
</symbol><symbol viewBox="0 0 24 24" id="ico-rotate-right">

  <path id="rotate-right" fill="#000000" d="M21.75,4V9a.75.75,0,0,1-.75.75H16a.75.75,0,0,1,0-1.5h3.33a8.234,8.234,0,1,0,.058,7.417.75.75,0,1,1,1.343.666,9.753,9.753,0,1,1-.481-9.519V4a.75.75,0,0,1,1.5,0Z"></path>
</symbol><symbol viewBox="0 0 24 24" id="ico-search">

  <path id="search" fill="#000000" d="M21.53,20.47l-3.841-3.841a8.769,8.769,0,1,0-1.06,1.06L20.47,21.53a.75.75,0,0,0,1.06-1.06ZM3.75,11A7.25,7.25,0,1,1,11,18.25,7.258,7.258,0,0,1,3.75,11Z"></path>
</symbol><symbol viewBox="0 0 17 17" id="ico-send-right-icon">
<path d="M14.8922 6.66308L5.38634 0.978087C4.11217 0.213921 2.55632 0.415582 1.51549 1.47308C0.48049 2.52558 0.307876 4.07559 1.08621 5.32893L3.14208 8.63892L1.08621 11.9489C0.307043 13.2022 0.479657 14.7522 1.51549 15.8047C2.13466 16.4339 2.93536 16.7597 3.75202 16.7597C4.30702 16.7597 4.87051 16.6089 5.38634 16.2997L14.8922 10.6147C15.5955 10.1947 16.0146 9.45558 16.0146 8.63892C16.0146 7.82225 15.5955 7.08308 14.8922 6.66308ZM14.2513 9.54226L4.74547 15.2273C3.7963 15.7939 2.89201 15.4214 2.40701 14.9281C1.92701 14.4397 1.57052 13.5389 2.14802 12.6081L4.22545 9.26308H8.72293C9.06793 9.26308 9.34793 8.98308 9.34793 8.63808C9.34793 8.29308 9.06793 8.01308 8.72293 8.01308H4.22545L2.14802 4.66807C1.57052 3.73724 1.92618 2.83641 2.40701 2.34807C2.71868 2.03141 3.20284 1.76391 3.76118 1.76391C4.07201 1.76391 4.40547 1.8464 4.74547 2.04974L14.2513 7.73476C14.573 7.92726 14.7646 8.26474 14.7646 8.63808C14.7646 9.01141 14.573 9.34976 14.2513 9.54226Z" fill="#FEFEFE"></path>
</symbol><symbol viewBox="0 0 24 24" id="ico-sort-vertical">

  <path id="sort-vertical" fill="#000000" d="M16.53,13.47a.749.749,0,0,1,0,1.06l-4,4a.748.748,0,0,1-1.06,0l-4-4a.75.75,0,0,1,1.06-1.06L12,16.939l3.47-3.469A.749.749,0,0,1,16.53,13.47Zm-8-2.94L12,7.061l3.47,3.469a.75.75,0,0,0,1.06-1.06l-4-4a.749.749,0,0,0-1.06,0l-4,4a.75.75,0,0,0,1.06,1.06Z"></path>
</symbol><symbol viewBox="0 0 24 24" id="ico-stopwatch">

  <path id="stopwatch" fill="#000000" d="M17.6,7.963l.932-.933a.75.75,0,0,0-1.06-1.06l-.978.977A8.291,8.291,0,1,0,17.6,7.963ZM11.5,20.25a6.75,6.75,0,1,1,6.75-6.75A6.758,6.758,0,0,1,11.5,20.25Zm2.45-5.85a.75.75,0,1,1-.9,1.2l-2-1.5a.75.75,0,0,1-.3-.6V10a.75.75,0,0,1,1.5,0v3.125ZM8.25,3A.75.75,0,0,1,9,2.25h5a.75.75,0,0,1,0,1.5H9A.75.75,0,0,1,8.25,3Z"></path>
</symbol><symbol viewBox="0 0 24 24" id="ico-times">

  <path id="times" fill="#000000" d="M18.53,17.47a.75.75,0,1,1-1.06,1.06L12,13.061,6.53,18.53a.75.75,0,0,1-1.06-1.06L10.939,12,5.47,6.53A.75.75,0,0,1,6.53,5.47L12,10.939,17.47,5.47a.75.75,0,0,1,1.06,1.06L13.061,12Z"></path>
</symbol><symbol viewBox="0 0 24 24" id="ico-user-check-bottom">

  <path id="user-check-bottom" fill="#000000" d="M11.009,10.75a4.25,4.25,0,1,1,4.25-4.25A4.255,4.255,0,0,1,11.009,10.75Zm0-7a2.75,2.75,0,1,0,2.75,2.75A2.752,2.752,0,0,0,11.009,3.75ZM14.75,21a.75.75,0,0,0-.75-.75H7c-1.577,0-2.25-.667-2.25-2.23A3.959,3.959,0,0,1,9,13.75h4a3.89,3.89,0,0,1,3.529,1.655.75.75,0,1,0,1.262-.81A5.306,5.306,0,0,0,13,12.25H9c-4.244,0-5.75,3.108-5.75,5.77,0,2.405,1.332,3.73,3.75,3.73h7A.75.75,0,0,0,14.75,21Zm4.113.2L21.53,18.53a.75.75,0,0,0-1.06-1.06l-2.137,2.136-.8-.8a.75.75,0,0,0-1.06,1.061L17.8,21.2a.748.748,0,0,0,1.06,0Z"></path>
</symbol><symbol viewBox="0 0 24 24" id="ico-user">

  <path id="user" fill="#000000" d="M12.009,10.75a4.25,4.25,0,1,1,4.25-4.25A4.255,4.255,0,0,1,12.009,10.75Zm0-7a2.75,2.75,0,1,0,2.75,2.75A2.752,2.752,0,0,0,12.009,3.75ZM16,21.75H8c-2.42,0-3.753-1.325-3.753-3.731,0-2.662,1.506-5.769,5.75-5.769h4c4.244,0,5.75,3.107,5.75,5.769C19.75,20.425,18.417,21.75,16,21.75Zm-6-8a3.958,3.958,0,0,0-4.25,4.269c0,1.564.674,2.231,2.253,2.231H16c1.579,0,2.253-.667,2.253-2.231A3.958,3.958,0,0,0,14,13.75Z"></path>
</symbol><symbol viewBox="0 0 18 17" id="ico-wallet-icon">
<path d="M14.5146 3.88617V3.63867C14.5146 1.62367 13.4046 0.513672 11.3896 0.513672H3.05631C1.79215 0.513672 0.764648 1.54117 0.764648 2.80534V13.6387C0.764648 15.6537 1.87465 16.7637 3.88965 16.7637H13.8896C15.9046 16.7637 17.0146 15.6537 17.0146 13.6387V6.972C17.0146 5.17617 16.133 4.0995 14.5146 3.88617ZM15.7646 11.7637H12.6396C11.8355 11.7637 11.1813 11.1095 11.1813 10.3053C11.1813 9.50117 11.8355 8.847 12.6396 8.847H15.7646V11.7637ZM3.05631 1.76367H11.3896C12.7038 1.76367 13.2646 2.32451 13.2646 3.63867V3.84701H3.05631C2.48215 3.84701 2.01465 3.37951 2.01465 2.80534C2.01465 2.23117 2.48215 1.76367 3.05631 1.76367ZM13.8896 15.5137H3.88965C2.57548 15.5137 2.01465 14.9528 2.01465 13.6387V4.84615C2.32715 5.00615 2.68132 5.097 3.05631 5.097H13.8896C15.2038 5.097 15.7646 5.65784 15.7646 6.972V7.597H12.6396C11.1463 7.597 9.93131 8.81201 9.93131 10.3053C9.93131 11.7987 11.1463 13.0137 12.6396 13.0137H15.7646V13.6387C15.7646 14.9528 15.2038 15.5137 13.8896 15.5137ZM13.0647 9.472H13.073C13.5338 9.472 13.9063 9.84534 13.9063 10.3053C13.9063 10.7653 13.5338 11.1387 13.073 11.1387C12.613 11.1387 12.2355 10.7653 12.2355 10.3053C12.2355 9.84534 12.6047 9.472 13.0647 9.472Z" fill="#FEFEFE"></path>
</symbol></svg>