<svg width="61" height="61" viewBox="0 0 61 61" fill="none" xmlns="http://www.w3.org/2000/svg">
<path d="M1.71582 10.5269C1.71582 9.60044 2.08315 8.71177 2.73728 8.05569L7.26831 3.51122C7.92499 2.85259 8.81679 2.48242 9.74685 2.48242H15.2158H30.2158H45.2158H50.6848C51.6148 2.48242 52.5067 2.8526 53.1633 3.51122L54.2256 2.45213L53.1633 3.51122L57.6944 8.05569C58.3485 8.71177 58.7158 9.60043 58.7158 10.5269V15.9824V30.9824V45.9824V51.4379C58.7158 52.3644 58.3485 53.2531 57.6944 53.9092L53.1633 58.4536C52.5067 59.1122 51.6148 59.4824 50.6848 59.4824H45.2158H30.2158H15.2158H9.74685C8.8168 59.4824 7.92498 59.1122 7.26831 58.4536L2.73728 53.9092C2.08315 53.2531 1.71582 52.3644 1.71582 51.4379V45.9824V30.9824V15.9824V10.5269Z" stroke="#5F5C64" stroke-width="3"/>
</svg>
