<svg width="42" height="42" viewBox="0 0 42 42" fill="none" xmlns="http://www.w3.org/2000/svg">
<path d="M1 24.7037V30.6296V40C1 40.5523 1.44772 41 2 41H11.3704H20.2593M24.7037 1H40C40.5523 1 41 1.44772 41 2V17.2963" stroke="#5F5C64" stroke-width="2"/>
<rect x="5" y="5" width="32" height="32" rx="2" fill="#374151"/>
<path d="M27.2325 17.1981C27.1587 17.1981 27.0959 17.1838 27.0443 17.1551C26.9926 17.1265 26.952 17.0764 26.9225 17.0048L26.2804 15.5442L24.6642 14.8568C24.5904 14.8282 24.5387 14.7888 24.5092 14.7387C24.4797 14.6885 24.4649 14.6277 24.4649 14.5561C24.4649 14.4845 24.4797 14.4236 24.5092 14.3735C24.5387 14.3234 24.5904 14.284 24.6642 14.2554L26.2804 13.5895L26.9225 12.1933C26.952 12.1217 26.9926 12.0716 27.0443 12.043C27.0959 12.0143 27.1587 12 27.2325 12C27.3063 12 27.369 12.0143 27.4207 12.043C27.4723 12.0716 27.5129 12.1217 27.5424 12.1933L28.1845 13.5895L29.8007 14.2554C29.8745 14.284 29.9262 14.3234 29.9557 14.3735C29.9852 14.4236 30 14.4845 30 14.5561C30 14.6277 29.9852 14.6885 29.9557 14.7387C29.9262 14.7888 29.8745 14.8282 29.8007 14.8568L28.1845 15.5442L27.5424 17.0048C27.5129 17.0764 27.4723 17.1265 27.4207 17.1551C27.369 17.1838 27.3063 17.1981 27.2325 17.1981ZM27.2325 30C27.1734 30 27.1144 29.9857 27.0554 29.957C26.9963 29.9284 26.952 29.8783 26.9225 29.8067L26.2804 28.4105L24.6863 27.7446C24.6125 27.716 24.5609 27.6766 24.5314 27.6265C24.5018 27.5764 24.4871 27.5155 24.4871 27.4439C24.4871 27.3723 24.5018 27.3115 24.5314 27.2613C24.5609 27.2112 24.6125 27.1718 24.6863 27.1432L26.2804 26.4773L26.9225 24.9952C26.952 24.9236 26.9926 24.8735 27.0443 24.8449C27.0959 24.8162 27.1587 24.8019 27.2325 24.8019C27.3063 24.8019 27.369 24.8162 27.4207 24.8449C27.4723 24.8735 27.5129 24.9236 27.5424 24.9952L28.1845 26.4773L29.7786 27.1432C29.8524 27.1718 29.9041 27.2112 29.9336 27.2613C29.9631 27.3115 29.9779 27.3723 29.9779 27.4439C29.9779 27.5155 29.9631 27.5764 29.9336 27.6265C29.9041 27.6766 29.8524 27.716 29.7786 27.7446L28.1845 28.4105L27.5424 29.8067C27.5129 29.8783 27.4686 29.9284 27.4096 29.957C27.3506 29.9857 27.2915 30 27.2325 30ZM17.5129 26.284C17.3948 26.284 17.2804 26.2518 17.1697 26.1874C17.059 26.1229 16.9742 26.0334 16.9151 25.9189L15.476 22.9332L12.3764 21.58C12.2583 21.5227 12.1661 21.4403 12.0996 21.3329C12.0332 21.2255 12 21.1146 12 21C12 20.8854 12.0332 20.7745 12.0996 20.6671C12.1661 20.5597 12.2583 20.4773 12.3764 20.42L15.476 19.0668L16.9151 16.1026C16.9742 15.9737 17.059 15.8771 17.1697 15.8126C17.2804 15.7482 17.3948 15.716 17.5129 15.716C17.631 15.716 17.7454 15.7482 17.8561 15.8126C17.9668 15.8771 18.0517 15.9666 18.1107 16.0811L19.572 19.0668L22.6494 20.42C22.7823 20.4773 22.8819 20.5597 22.9483 20.6671C23.0148 20.7745 23.048 20.8854 23.048 21C23.048 21.1146 23.0148 21.2255 22.9483 21.3329C22.8819 21.4403 22.7823 21.5227 22.6494 21.58L19.572 22.9332L18.1107 25.9189C18.0517 26.0477 17.9668 26.1408 17.8561 26.1981C17.7454 26.2554 17.631 26.284 17.5129 26.284Z" fill="#06B6D4"/>
</svg>
