<svg width="832" height="128" viewBox="0 0 832 128" fill="none" xmlns="http://www.w3.org/2000/svg">
<g filter="url(#filter0_b_144_2820)">
<path d="M761.008 126H73.0262H4.00001C2.89544 126 2 125.105 2.00001 124L2.00044 16.8192C2.00045 16.2903 2.20997 15.7829 2.58316 15.4081L15.3468 2.58886C15.7221 2.21191 16.2322 2 16.7641 2H815.822H828C829.105 2 830 2.89543 830 4.00001L830 124C830 125.105 829.104 126 828 126H761.008Z" fill="#141A20"/>
<path d="M761.008 125H73.0262H4.00001C3.44772 125 3.00001 124.552 3.00001 124L3.00044 16.8192C3.00045 16.5547 3.10521 16.301 3.2918 16.1136L16.0555 3.29443C16.2431 3.10595 16.4981 3 16.7641 3H815.822H828C828.552 3 829 3.44772 829 4.00001L829 124C829 124.552 828.552 125 828 125H761.008Z" stroke="#292F36" stroke-width="2"/>
</g>
<path d="M73.0262 127H761.008H828C829.656 127 831 125.657 831 124L831 4.00001C831 2.34315 829.657 1 828 1H815.822H16.7641C15.9662 1 15.2012 1.31786 14.6382 1.88329L1.87452 14.7025C1.31473 15.2647 1.00045 16.0258 1.00044 16.8192L1.00001 124C1 125.657 2.34315 127 4.00001 127H73.0262Z" stroke="#5F5C64" stroke-width="2"/>
<defs>
<filter id="filter0_b_144_2820" x="-148" y="-148" width="1128" height="424" filterUnits="userSpaceOnUse" color-interpolation-filters="sRGB">
<feFlood flood-opacity="0" result="BackgroundImageFix"/>
<feGaussianBlur in="BackgroundImageFix" stdDeviation="75"/>
<feComposite in2="SourceAlpha" operator="in" result="effect1_backgroundBlur_144_2820"/>
<feBlend mode="normal" in="SourceGraphic" in2="effect1_backgroundBlur_144_2820" result="shape"/>
</filter>
</defs>
</svg>
