<svg width="507" height="64" viewBox="0 0 507 64" fill="none" xmlns="http://www.w3.org/2000/svg">
<g filter="url(#filter0_d_237_614)">
<path d="M499 8H253.5H130.75H26.0894L7.99997 21.7981V56H253.5H376.25H478.326L499 42.7981V8Z" fill="white"/>
</g>
<path d="M218.369 38.7695C217.974 38.7695 217.612 38.6735 217.281 38.4815C216.95 38.2895 216.689 38.0282 216.497 37.6975C216.305 37.3669 216.209 37.0042 216.209 36.6095V29.4095C216.209 29.0149 216.305 28.6522 216.497 28.3215C216.689 27.9909 216.95 27.7295 217.281 27.5375C217.612 27.3455 217.974 27.2495 218.369 27.2495H227.697V29.1855H218.705C218.534 29.1855 218.396 29.2389 218.289 29.3455C218.182 29.4415 218.129 29.5749 218.129 29.7455V36.2735C218.129 36.4442 218.182 36.5829 218.289 36.6895C218.396 36.7855 218.534 36.8335 218.705 36.8335H227.697V38.7695H218.369ZM238.677 38.7695L235.141 34.5455H237.653L240.837 38.3215V38.7695H238.677ZM229.365 38.7695V27.2655H238.725C239.12 27.2655 239.477 27.3669 239.797 27.5695C240.128 27.7615 240.389 28.0229 240.581 28.3535C240.784 28.6735 240.885 29.0309 240.885 29.4255V32.5935C240.885 32.9775 240.784 33.3349 240.581 33.6655C240.389 33.9962 240.128 34.2575 239.797 34.4495C239.477 34.6415 239.12 34.7375 238.725 34.7375L231.285 34.7535V38.7695H229.365ZM231.573 32.8015H238.661C238.736 32.8015 238.8 32.7749 238.853 32.7215C238.917 32.6682 238.949 32.5989 238.949 32.5135V29.4735C238.949 29.3989 238.917 29.3349 238.853 29.2815C238.8 29.2175 238.736 29.1855 238.661 29.1855H231.573C231.499 29.1855 231.429 29.2175 231.365 29.2815C231.312 29.3349 231.285 29.3989 231.285 29.4735V32.5135C231.285 32.5989 231.312 32.6682 231.365 32.7215C231.429 32.7749 231.499 32.8015 231.573 32.8015ZM242.6 38.7695V27.2495H253.176V29.1855H244.536V32.0495H251.496V33.9695H244.536V36.8335H253.176V38.7695H242.6ZM254.85 38.7695V29.4095C254.85 29.0149 254.946 28.6522 255.138 28.3215C255.33 27.9909 255.592 27.7295 255.922 27.5375C256.253 27.3455 256.616 27.2495 257.01 27.2495H264.21C264.605 27.2495 264.962 27.3455 265.282 27.5375C265.613 27.7295 265.874 27.9909 266.066 28.3215C266.269 28.6522 266.37 29.0149 266.37 29.4095V38.7695H264.434V34.8175H256.77V38.7695H254.85ZM256.77 32.8975H264.434V29.4735C264.434 29.3882 264.402 29.3189 264.338 29.2655C264.285 29.2122 264.221 29.1855 264.146 29.1855H257.058C256.984 29.1855 256.914 29.2122 256.85 29.2655C256.797 29.3189 256.77 29.3882 256.77 29.4735V32.8975ZM272.417 38.7695V29.1855H267.617V27.2495H279.137V29.1855H274.337V38.7695H272.417ZM280.366 38.7695V27.2495H290.942V29.1855H282.302V32.0495H289.262V33.9695H282.302V36.8335H290.942V38.7695H280.366Z" fill="#121212"/>
<defs>
<filter id="filter0_d_237_614" x="0" y="0" width="507" height="64" filterUnits="userSpaceOnUse" color-interpolation-filters="sRGB">
<feFlood flood-opacity="0" result="BackgroundImageFix"/>
<feColorMatrix in="SourceAlpha" type="matrix" values="0 0 0 0 0 0 0 0 0 0 0 0 0 0 0 0 0 0 127 0" result="hardAlpha"/>
<feOffset/>
<feGaussianBlur stdDeviation="4"/>
<feComposite in2="hardAlpha" operator="out"/>
<feColorMatrix type="matrix" values="0 0 0 0 1 0 0 0 0 1 0 0 0 0 1 0 0 0 1 0"/>
<feBlend mode="normal" in2="BackgroundImageFix" result="effect1_dropShadow_237_614"/>
<feBlend mode="normal" in="SourceGraphic" in2="effect1_dropShadow_237_614" result="shape"/>
</filter>
</defs>
</svg>
