<svg width="225" height="26" viewBox="0 0 225 26" fill="none" xmlns="http://www.w3.org/2000/svg">
<g filter="url(#filter0_d_120_2445)">
<path d="M99.6349 0L91.1149 17H83.0859L91.6058 0H99.6349ZM79.9707 0L71.4507 17H79.4797L87.9997 0H79.9707ZM68.3355 0L59.8155 17H67.8445L76.3645 0H68.3355ZM103.245 0L94.7255 17H102.755L111.275 0H103.245ZM114.881 0L106.361 17H114.39L122.91 0H114.881ZM56.7003 0L48.1803 17H56.2094L64.7293 0H56.7003ZM45.0651 0L36.5452 17H44.5742L53.0942 0H45.0651ZM33.43 0L24.91 17H32.939L41.459 0H33.43ZM21.7948 0L13.2748 17H21.3038L29.8238 0H21.7948ZM10.1596 0L1.63964 17H9.66867L18.1886 0H10.1596ZM-1.47557 0L-10 17H-1.97097L6.549 0H-1.48003H-1.47557ZM138.155 0L129.635 17H137.665L146.184 0H138.155ZM196.336 0L187.816 17H195.845L204.365 0H196.336ZM207.971 0L199.451 17H207.48L216 0H207.971ZM126.52 0L118 17H126.029L134.549 0H126.52ZM161.43 0L152.91 17H160.939L169.459 0H161.43ZM149.795 0L141.275 17H149.304L157.824 0H149.795ZM184.705 0L176.185 17H184.214L192.734 0H184.705ZM173.07 0L164.55 17H172.579L181.099 0H173.07Z" fill="white"/>
</g>
<defs>
<filter id="filter0_d_120_2445" x="-18.36" y="-8.36" width="242.72" height="33.72" filterUnits="userSpaceOnUse" color-interpolation-filters="sRGB">
<feFlood flood-opacity="0" result="BackgroundImageFix"/>
<feColorMatrix in="SourceAlpha" type="matrix" values="0 0 0 0 0 0 0 0 0 0 0 0 0 0 0 0 0 0 127 0" result="hardAlpha"/>
<feOffset/>
<feGaussianBlur stdDeviation="4.18"/>
<feColorMatrix type="matrix" values="0 0 0 0 1 0 0 0 0 1 0 0 0 0 1 0 0 0 0.45 0"/>
<feBlend mode="normal" in2="BackgroundImageFix" result="effect1_dropShadow_120_2445"/>
<feBlend mode="normal" in="SourceGraphic" in2="effect1_dropShadow_120_2445" result="shape"/>
</filter>
</defs>
</svg>
