<svg width="661" height="66" viewBox="0 0 661 66" fill="none" xmlns="http://www.w3.org/2000/svg">
<path d="M13.2979 27.6191H230.278L255.71 53.622H330.507" stroke="white" stroke-miterlimit="10"/>
<path d="M13.4801 31.3874C11.4484 31.3874 9.79492 29.6968 9.79492 27.6195C9.79492 25.5421 11.4484 23.8516 13.4801 23.8516C15.5119 23.8516 17.1654 25.5421 17.1654 27.6195C17.1654 29.6968 15.5119 31.3874 13.4801 31.3874Z" fill="white"/>
<path style="mix-blend-mode:screen" d="M68.5195 14.6533H592.48" stroke="#F3F3F3" stroke-width="7" stroke-miterlimit="10"/>
<path d="M0 10.3271H22.9661L48.6085 36.5449H239.007L267.312 65.4991" stroke="white" stroke-miterlimit="10"/>
<path d="M28.0244 6.81717L39.5705 18.6367L57.6884 0.112305H34.5821L28.0244 6.81717Z" fill="white"/>
<path d="M120.758 47.5764H54.0176L64.807 36.5449H131.547L120.758 47.5764Z" fill="white"/>
<path d="M152.061 47.5764H129.726L140.515 36.5449H162.851L152.061 47.5764Z" fill="white"/>
<path d="M185.172 47.5764H162.851L173.64 36.5449H195.962L185.172 47.5764Z" fill="white"/>
<path d="M647.702 27.6191H430.722L405.29 53.622H330.507" stroke="white" stroke-miterlimit="10"/>
<path d="M647.52 31.3874C649.555 31.3874 651.205 29.7004 651.205 27.6195C651.205 25.5385 649.555 23.8516 647.52 23.8516C645.485 23.8516 643.835 25.5385 643.835 27.6195C643.835 29.7004 645.485 31.3874 647.52 31.3874Z" fill="white"/>
<path d="M621.667 27.6192L594.708 0.0546875H66.2916L39.332 27.6192" stroke="white" stroke-miterlimit="10"/>
<path d="M661 10.3271H638.034L612.392 36.5449H421.993L393.759 65.4274" stroke="white" stroke-miterlimit="10"/>
<path d="M632.975 6.81717L621.429 18.6367L603.312 0.112305H626.418L632.975 6.81717Z" fill="white"/>
<path d="M540.243 47.5764H606.983L596.193 36.5449H529.453L540.243 47.5764Z" fill="white"/>
<path d="M508.954 47.5764H531.275L520.486 36.5449H498.164L508.954 47.5764Z" fill="white"/>
<path d="M475.828 47.5764H498.164L487.361 36.5449H465.039L475.828 47.5764Z" fill="white"/>
</svg>
