<svg width="235" height="26" viewBox="0 0 235 26" fill="none" xmlns="http://www.w3.org/2000/svg">
<g filter="url(#filter0_d_25_1406)">
<path d="M118.635 0L110.115 17H102.086L110.606 0H118.635ZM98.9707 0L90.4507 17H98.4797L107 0H98.9707ZM87.3355 0L78.8155 17H86.8445L95.3645 0H87.3355ZM122.245 0L113.726 17H121.755L130.275 0H122.245ZM133.881 0L125.361 17H133.39L141.91 0H133.881ZM75.7003 0L67.1803 17H75.2094L83.7293 0H75.7003ZM64.0651 0L55.5452 17H63.5742L72.0942 0H64.0651ZM52.43 0L43.91 17H51.939L60.459 0H52.43ZM40.7948 0L32.2748 17H40.3038L48.8238 0H40.7948ZM29.1596 0L20.6396 17H28.6687L37.1886 0H29.1596ZM17.5244 0L9 17H17.029L25.549 0H17.52H17.5244ZM157.155 0L148.635 17H156.665L165.184 0H157.155ZM215.336 0L206.816 17H214.845L223.365 0H215.336ZM226.971 0L218.451 17H226.48L235 0H226.971ZM145.52 0L137 17H145.029L153.549 0H145.52ZM180.43 0L171.91 17H179.939L188.459 0H180.43ZM168.795 0L160.275 17H168.304L176.824 0H168.795ZM203.705 0L195.185 17H203.214L211.734 0H203.705ZM192.07 0L183.55 17H191.579L200.099 0H192.07Z" fill="white"/>
</g>
<defs>
<filter id="filter0_d_25_1406" x="0.64" y="-8.36" width="242.72" height="33.72" filterUnits="userSpaceOnUse" color-interpolation-filters="sRGB">
<feFlood flood-opacity="0" result="BackgroundImageFix"/>
<feColorMatrix in="SourceAlpha" type="matrix" values="0 0 0 0 0 0 0 0 0 0 0 0 0 0 0 0 0 0 127 0" result="hardAlpha"/>
<feOffset/>
<feGaussianBlur stdDeviation="4.18"/>
<feColorMatrix type="matrix" values="0 0 0 0 1 0 0 0 0 1 0 0 0 0 1 0 0 0 0.45 0"/>
<feBlend mode="normal" in2="BackgroundImageFix" result="effect1_dropShadow_25_1406"/>
<feBlend mode="normal" in="SourceGraphic" in2="effect1_dropShadow_25_1406" result="shape"/>
</filter>
</defs>
</svg>
