<svg width="25" height="27" viewBox="0 0 25 27" fill="none" xmlns="http://www.w3.org/2000/svg">
<path d="M10.7413 26.833C8.10396 26.833 5.64928 25.8264 3.82528 23.997C-0.018718 20.1424 0.0388702 13.8131 3.95354 9.88639L11.5909 2.2277C12.9176 0.897035 14.68 0.165039 16.5574 0.165039C18.4347 0.165039 20.1962 0.897035 21.5242 2.2277C24.2602 4.9717 24.2602 9.43438 21.5242 12.177L13.8494 19.8717C12.2707 21.453 9.51755 21.4557 7.93889 19.8717C6.31222 18.2397 6.31222 15.5864 7.93889 13.9557L14.6801 7.19572C15.2014 6.67439 16.0442 6.67303 16.5655 7.19303C17.0882 7.71303 17.0881 8.55704 16.5681 9.07837L9.82691 15.8384C9.23624 16.4317 9.23624 17.3957 9.82691 17.9891C10.3989 18.5611 11.3907 18.5597 11.9613 17.9891L19.6362 10.2944C21.3362 8.58906 21.3362 5.81573 19.6362 4.11039C17.9908 2.46106 15.1256 2.46106 13.4802 4.11039L5.84286 11.769C3.01219 14.6077 2.9546 19.345 5.7146 22.113C7.03327 23.4357 8.81993 24.165 10.7426 24.165C12.7159 24.165 14.6416 23.3717 16.0216 21.9864L22.724 15.2637C23.2454 14.7424 24.0881 14.7411 24.6095 15.2611C25.1321 15.7811 25.1321 16.625 24.6121 17.1464L17.9093 23.8691C16.0293 25.7531 13.4173 26.833 10.7413 26.833Z" fill="#FEFEFE"/>
</svg>
