<svg width="37" height="58" viewBox="0 0 37 58" fill="none" xmlns="http://www.w3.org/2000/svg">
<path d="M26.0843 57.7646H29.6357V46.9961H26.0843V57.7646Z" fill="#E3E3E3"/>
<path d="M32.5248 57.7646H36.0762V46.9961H32.5248V57.7646Z" fill="#E3E3E3"/>
<path opacity="0.8" d="M19.7494 57.7646H23.3008V46.9961H19.7494V57.7646Z" fill="#E3E3E3"/>
<path opacity="0.6" d="M13.4144 57.7646H16.9658V46.9961H13.4144L13.4144 57.7646Z" fill="#E3E3E3"/>
<path opacity="0.4" d="M7.09117 57.7646H10.6426L10.6426 46.9961H7.09117L7.09117 57.7646Z" fill="#E3E3E3"/>
<path opacity="0.2" d="M0.75717 57.7646H4.30859L4.30859 46.9961H0.75717L0.75717 57.7646Z" fill="#E3E3E3"/>
<path d="M32.5218 27.0645H36.0732V16.2959H32.5218V27.0645Z" fill="#E3E3E3"/>
<path opacity="0.8" d="M26.1879 27.0645H29.7393V16.2959H26.1879V27.0645Z" fill="#E3E3E3"/>
<path opacity="0.6" d="M19.8519 27.0645H23.4033V16.2959H19.8519V27.0645Z" fill="#E3E3E3"/>
<path opacity="0.4" d="M13.5306 27.0645H17.082V16.2959H13.5306L13.5306 27.0645Z" fill="#E3E3E3"/>
<path opacity="0.2" d="M7.19469 27.0645H10.7461L10.7461 16.2959H7.19469L7.19469 27.0645Z" fill="#E3E3E3"/>
<path d="M32.5238 42.4209H36.0752V31.6523H32.5238V42.4209Z" fill="#E3E3E3"/>
<path opacity="0.6" d="M26.1888 42.4209H29.7402V31.6523H26.1888V42.4209Z" fill="#E3E3E3"/>
<path opacity="0.3" d="M19.8529 42.4209H23.4043V31.6523H19.8529V42.4209Z" fill="#E3E3E3"/>
<path opacity="0.15" d="M13.5316 42.4209H17.083V31.6523H13.5316L13.5316 42.4209Z" fill="#E3E3E3"/>
<path d="M32.5218 11.708H36.0732V0.939417H32.5218V11.708Z" fill="#E3E3E3"/>
<path opacity="0.45" d="M26.1869 11.708H29.7383V0.939417H26.1869V11.708Z" fill="#E3E3E3"/>
<path opacity="0.15" d="M19.8519 11.708H23.4033V0.939417H19.8519V11.708Z" fill="#E3E3E3"/>
</svg>
