<svg width="419" height="64" viewBox="0 0 419 64" fill="none" xmlns="http://www.w3.org/2000/svg">
<g filter="url(#filter0_d_120_2502)">
<path fill="#141A20" d="M9 8.5H209.5H310H395.493L410 22.0156V55.5H209.5H109H25.5982L9 42.554V8.5Z" stroke="white" shape-rendering="crispEdges"/>
</g>
<path d="M125.598 39C125.204 39 124.841 38.904 124.51 38.712C124.19 38.52 123.934 38.2587 123.742 37.928C123.55 37.5973 123.454 37.2347 123.454 36.84V36.072H125.374V36.776C125.374 36.8613 125.401 36.9307 125.454 36.984C125.508 37.0373 125.577 37.064 125.662 37.064H132.734C132.82 37.064 132.889 37.0373 132.942 36.984C133.006 36.9307 133.038 36.8613 133.038 36.776V34.488C133.038 34.4133 133.006 34.3493 132.942 34.296C132.889 34.232 132.82 34.2 132.734 34.2H125.598C125.204 34.2 124.841 34.104 124.51 33.912C124.19 33.72 123.934 33.464 123.742 33.144C123.55 32.8133 123.454 32.4507 123.454 32.056V29.64C123.454 29.2453 123.55 28.8827 123.742 28.552C123.934 28.2213 124.19 27.96 124.51 27.768C124.841 27.576 125.204 27.48 125.598 27.48H132.814C133.209 27.48 133.566 27.576 133.886 27.768C134.217 27.96 134.478 28.2213 134.67 28.552C134.873 28.8827 134.974 29.2453 134.974 29.64V30.408H133.038V29.704C133.038 29.6187 133.006 29.5493 132.942 29.496C132.889 29.4427 132.82 29.416 132.734 29.416H125.662C125.577 29.416 125.508 29.4427 125.454 29.496C125.401 29.5493 125.374 29.6187 125.374 29.704V31.992C125.374 32.0667 125.401 32.136 125.454 32.2C125.508 32.2533 125.577 32.28 125.662 32.28H132.814C133.209 32.28 133.566 32.376 133.886 32.568C134.217 32.76 134.478 33.0213 134.67 33.352C134.873 33.672 134.974 34.0293 134.974 34.424V36.84C134.974 37.2347 134.873 37.5973 134.67 37.928C134.478 38.2587 134.217 38.52 133.886 38.712C133.566 38.904 133.209 39 132.814 39H125.598ZM136.577 39V27.48H138.481V39H136.577ZM142.287 39C141.893 39 141.53 38.904 141.199 38.712C140.869 38.52 140.607 38.2587 140.415 37.928C140.223 37.5973 140.127 37.2347 140.127 36.84V29.64C140.127 29.2453 140.223 28.8827 140.415 28.552C140.607 28.2213 140.869 27.96 141.199 27.768C141.53 27.576 141.893 27.48 142.287 27.48H149.487C149.882 27.48 150.239 27.576 150.559 27.768C150.89 27.96 151.151 28.2213 151.343 28.552C151.546 28.8827 151.647 29.2453 151.647 29.64V30.424H149.711V29.704C149.711 29.6187 149.679 29.5493 149.615 29.496C149.562 29.4427 149.498 29.416 149.423 29.416H142.335C142.261 29.416 142.191 29.4427 142.127 29.496C142.074 29.5493 142.047 29.6187 142.047 29.704V36.776C142.047 36.8613 142.074 36.9307 142.127 36.984C142.191 37.0373 142.261 37.064 142.335 37.064H149.423C149.498 37.064 149.562 37.0373 149.615 36.984C149.679 36.9307 149.711 36.8613 149.711 36.776V34.52H147.055V32.584H151.647V36.84C151.647 37.2347 151.546 37.5973 151.343 37.928C151.151 38.2587 150.89 38.52 150.559 38.712C150.239 38.904 149.882 39 149.487 39H142.287ZM153.409 39V27.48H155.601L162.993 36.28V27.48H164.929V39H162.737L155.329 30.184V39H153.409ZM171.359 39V27.48H173.263V39H171.359ZM174.909 39V27.48H177.101L184.493 36.28V27.48H186.429V39H184.237L176.829 30.184V39H174.909ZM196.843 39L192.651 27.48H194.699L197.611 35.464L200.523 27.48H202.475L205.403 35.464L208.315 27.48H210.363L206.171 39H204.619L201.499 30.44L198.379 39H196.843ZM211.718 39V27.48H213.622V39H211.718ZM219.664 39V29.416H214.864V27.48H226.384V29.416H221.584V39H219.664ZM227.596 39V27.48H229.516V32.28H237.452V27.48H239.372V39H237.452V34.2H229.516V39H227.596ZM248.115 39C247.721 39 247.358 38.904 247.027 38.712C246.697 38.52 246.435 38.2587 246.243 37.928C246.051 37.5973 245.955 37.2347 245.955 36.84V29.64C245.955 29.2453 246.051 28.8827 246.243 28.552C246.435 28.2213 246.697 27.96 247.027 27.768C247.358 27.576 247.721 27.48 248.115 27.48H255.315C255.71 27.48 256.067 27.576 256.387 27.768C256.718 27.96 256.979 28.2213 257.171 28.552C257.374 28.8827 257.475 29.2453 257.475 29.64V30.424H255.539V29.704C255.539 29.6187 255.507 29.5493 255.443 29.496C255.39 29.4427 255.326 29.416 255.251 29.416H248.163C248.089 29.416 248.019 29.4427 247.955 29.496C247.902 29.5493 247.875 29.6187 247.875 29.704V36.776C247.875 36.8613 247.902 36.9307 247.955 36.984C248.019 37.0373 248.089 37.064 248.163 37.064H255.251C255.326 37.064 255.39 37.0373 255.443 36.984C255.507 36.9307 255.539 36.8613 255.539 36.776V34.52H252.883V32.584H257.475V36.84C257.475 37.2347 257.374 37.5973 257.171 37.928C256.979 38.2587 256.718 38.52 256.387 38.712C256.067 38.904 255.71 39 255.315 39H248.115ZM261.365 39C260.97 39 260.607 38.904 260.277 38.712C259.946 38.52 259.685 38.2587 259.493 37.928C259.301 37.5973 259.205 37.2347 259.205 36.84V29.64C259.205 29.2453 259.301 28.8827 259.493 28.552C259.685 28.2213 259.946 27.96 260.277 27.768C260.607 27.576 260.97 27.48 261.365 27.48H268.565C268.959 27.48 269.317 27.576 269.637 27.768C269.967 27.96 270.229 28.2213 270.421 28.552C270.623 28.8827 270.725 29.2453 270.725 29.64V36.84C270.725 37.2347 270.623 37.5973 270.421 37.928C270.229 38.2587 269.967 38.52 269.637 38.712C269.317 38.904 268.959 39 268.565 39H261.365ZM261.413 37.064H268.501C268.575 37.064 268.639 37.0373 268.693 36.984C268.757 36.9307 268.789 36.8613 268.789 36.776V29.704C268.789 29.6187 268.757 29.5493 268.693 29.496C268.639 29.4427 268.575 29.416 268.501 29.416H261.413C261.338 29.416 261.269 29.4427 261.205 29.496C261.151 29.5493 261.125 29.6187 261.125 29.704V36.776C261.125 36.8613 261.151 36.9307 261.205 36.984C261.269 37.0373 261.338 37.064 261.413 37.064ZM274.615 39C274.22 39 273.857 38.904 273.527 38.712C273.196 38.52 272.935 38.2587 272.743 37.928C272.551 37.5973 272.455 37.2347 272.455 36.84V29.64C272.455 29.2453 272.551 28.8827 272.743 28.552C272.935 28.2213 273.196 27.96 273.527 27.768C273.857 27.576 274.22 27.48 274.615 27.48H281.815C282.209 27.48 282.567 27.576 282.887 27.768C283.217 27.96 283.479 28.2213 283.671 28.552C283.873 28.8827 283.975 29.2453 283.975 29.64V36.84C283.975 37.2347 283.873 37.5973 283.671 37.928C283.479 38.2587 283.217 38.52 282.887 38.712C282.567 38.904 282.209 39 281.815 39H274.615ZM274.663 37.064H281.751C281.825 37.064 281.889 37.0373 281.943 36.984C282.007 36.9307 282.039 36.8613 282.039 36.776V29.704C282.039 29.6187 282.007 29.5493 281.943 29.496C281.889 29.4427 281.825 29.416 281.751 29.416H274.663C274.588 29.416 274.519 29.4427 274.455 29.496C274.401 29.5493 274.375 29.6187 274.375 29.704V36.776C274.375 36.8613 274.401 36.9307 274.455 36.984C274.519 37.0373 274.588 37.064 274.663 37.064ZM287.897 39C287.502 39 287.139 38.904 286.809 38.712C286.478 38.52 286.217 38.2587 286.025 37.928C285.833 37.5973 285.737 37.2347 285.737 36.84V29.64C285.737 29.2453 285.833 28.8827 286.025 28.552C286.217 28.2213 286.478 27.96 286.809 27.768C287.139 27.576 287.502 27.48 287.897 27.48H295.097C295.491 27.48 295.849 27.576 296.169 27.768C296.499 27.96 296.761 28.2213 296.953 28.552C297.155 28.8827 297.257 29.2453 297.257 29.64V30.424H295.321V29.704C295.321 29.6187 295.289 29.5493 295.225 29.496C295.171 29.4427 295.107 29.416 295.033 29.416H287.945C287.87 29.416 287.801 29.4427 287.737 29.496C287.683 29.5493 287.657 29.6187 287.657 29.704V36.776C287.657 36.8613 287.683 36.9307 287.737 36.984C287.801 37.0373 287.87 37.064 287.945 37.064H295.033C295.107 37.064 295.171 37.0373 295.225 36.984C295.289 36.9307 295.321 36.8613 295.321 36.776V34.52H292.665V32.584H297.257V36.84C297.257 37.2347 297.155 37.5973 296.953 37.928C296.761 38.2587 296.499 38.52 296.169 38.712C295.849 38.904 295.491 39 295.097 39H287.897ZM299.034 39V27.464H300.954V37.064H310.554V39H299.034ZM311.519 39V27.48H322.095V29.416H313.455V32.28H320.415V34.2H313.455V37.064H322.095V39H311.519Z" fill="white"/>
<path d="M111.506 32.2276C111.507 31.5461 111.446 30.8659 111.323 30.1943H101.277V34.0455H107.031C106.913 34.6606 106.664 35.247 106.298 35.7692C105.933 36.2915 105.458 36.7388 104.904 37.0843V39.5841H108.337C110.348 37.844 111.506 35.2705 111.506 32.2276Z" fill="#4285F4"/>
<path d="M101.278 41.9998C104.153 41.9998 106.573 41.1137 108.338 39.586L104.904 37.0861C103.949 37.6944 102.718 38.0416 101.278 38.0416C98.4997 38.0416 96.1414 36.2834 95.2981 33.9141H91.7607V36.4903C92.6473 38.1465 94.0068 39.5387 95.6874 40.5116C97.3681 41.4844 99.3037 41.9997 101.278 41.9998Z" fill="#34A853"/>
<path d="M95.2976 33.9136C94.8518 32.6721 94.8518 31.3276 95.2976 30.086V27.5098H91.7602C91.0144 28.903 90.626 30.4406 90.626 31.9998C90.626 33.559 91.0144 35.0967 91.7602 36.4899L95.2976 33.9136Z" fill="#FBBC04"/>
<path d="M101.278 25.9588C102.797 25.9355 104.265 26.4743 105.364 27.4587L108.405 24.6047C106.477 22.9049 103.923 21.9717 101.278 22.0007C99.3037 22.0007 97.3681 22.516 95.6874 23.4889C94.0068 24.4617 92.6473 25.854 91.7607 27.5101L95.2981 30.0864C96.1414 27.717 98.4997 25.9588 101.278 25.9588Z" fill="#EA4335"/>
<defs>
<filter id="filter0_d_120_2502" x="0.5" y="0" width="418" height="64" filterUnits="userSpaceOnUse" color-interpolation-filters="sRGB">
<feFlood flood-opacity="0" result="BackgroundImageFix"/>
<feColorMatrix in="SourceAlpha" type="matrix" values="0 0 0 0 0 0 0 0 0 0 0 0 0 0 0 0 0 0 127 0" result="hardAlpha"/>
<feOffset/>
<feGaussianBlur stdDeviation="4"/>
<feComposite in2="hardAlpha" operator="out"/>
<feColorMatrix type="matrix" values="0 0 0 0 1 0 0 0 0 1 0 0 0 0 1 0 0 0 1 0"/>
<feBlend mode="normal" in2="BackgroundImageFix" result="effect1_dropShadow_120_2502"/>
<feBlend mode="normal" in="SourceGraphic" in2="effect1_dropShadow_120_2502" result="shape"/>
</filter>
</defs>
</svg>
