<svg width="42" height="42" viewBox="0 0 42 42" fill="none" xmlns="http://www.w3.org/2000/svg">
<path d="M1 24.7037V30.6296V40C1 40.5523 1.44772 41 2 41H11.3704H20.2593M24.7037 1H40C40.5523 1 41 1.44772 41 2V17.2963" stroke="#5F5C64" stroke-width="2"/>
<rect x="5" y="5" width="32" height="32" rx="2" fill="#374151"/>
<path d="M21.009 19.75C18.665 19.75 16.759 17.843 16.759 15.5C16.759 13.157 18.665 11.25 21.009 11.25C23.353 11.25 25.259 13.157 25.259 15.5C25.259 17.843 23.353 19.75 21.009 19.75ZM21.009 12.75C19.492 12.75 18.259 13.983 18.259 15.5C18.259 17.017 19.492 18.25 21.009 18.25C22.526 18.25 23.759 17.017 23.759 15.5C23.759 13.983 22.525 12.75 21.009 12.75ZM24.9969 30.75H17.0031C14.5831 30.75 13.25 29.425 13.25 27.019C13.25 24.358 14.756 21.25 19 21.25H23C27.244 21.25 28.75 24.357 28.75 27.019C28.75 29.425 27.4169 30.75 24.9969 30.75ZM19 22.75C15.057 22.75 14.75 26.017 14.75 27.019C14.75 28.583 15.4241 29.25 17.0031 29.25H24.9969C26.5759 29.25 27.25 28.583 27.25 27.019C27.25 26.018 26.943 22.75 23 22.75H19Z" fill="#FEFEFE"/>
</svg>
