<svg width="419" height="64" viewBox="0 0 419 64" fill="none" xmlns="http://www.w3.org/2000/svg">
<g filter="url(#filter0_d_120_2498)">
<path d="M8.5 8H209.5H310H395.689L410.5 21.7981V56H209.5H109H25.4263L8.5 42.7981V8Z" fill="white"/>
</g>
<path d="M174.369 38.7695C173.974 38.7695 173.611 38.6735 173.281 38.4815C172.95 38.2895 172.689 38.0282 172.497 37.6975C172.305 37.3669 172.209 37.0042 172.209 36.6095V29.4095C172.209 29.0149 172.305 28.6522 172.497 28.3215C172.689 27.9909 172.95 27.7295 173.281 27.5375C173.611 27.3455 173.974 27.2495 174.369 27.2495H183.697V29.1855H174.705C174.534 29.1855 174.395 29.2389 174.289 29.3455C174.182 29.4415 174.129 29.5749 174.129 29.7455V36.2735C174.129 36.4442 174.182 36.5829 174.289 36.6895C174.395 36.7855 174.534 36.8335 174.705 36.8335H183.697V38.7695H174.369ZM194.677 38.7695L191.141 34.5455H193.653L196.837 38.3215V38.7695H194.677ZM185.365 38.7695V27.2655H194.725C195.12 27.2655 195.477 27.3669 195.797 27.5695C196.128 27.7615 196.389 28.0229 196.581 28.3535C196.784 28.6735 196.885 29.0309 196.885 29.4255V32.5935C196.885 32.9775 196.784 33.3349 196.581 33.6655C196.389 33.9962 196.128 34.2575 195.797 34.4495C195.477 34.6415 195.12 34.7375 194.725 34.7375L187.285 34.7535V38.7695H185.365ZM187.573 32.8015H194.661C194.736 32.8015 194.8 32.7749 194.853 32.7215C194.917 32.6682 194.949 32.5989 194.949 32.5135V29.4735C194.949 29.3989 194.917 29.3349 194.853 29.2815C194.8 29.2175 194.736 29.1855 194.661 29.1855H187.573C187.498 29.1855 187.429 29.2175 187.365 29.2815C187.312 29.3349 187.285 29.3989 187.285 29.4735V32.5135C187.285 32.5989 187.312 32.6682 187.365 32.7215C187.429 32.7749 187.498 32.8015 187.573 32.8015ZM198.6 38.7695V27.2495H209.176V29.1855H200.536V32.0495H207.496V33.9695H200.536V36.8335H209.176V38.7695H198.6ZM210.85 38.7695V29.4095C210.85 29.0149 210.946 28.6522 211.138 28.3215C211.33 27.9909 211.591 27.7295 211.922 27.5375C212.253 27.3455 212.615 27.2495 213.01 27.2495H220.21C220.605 27.2495 220.962 27.3455 221.282 27.5375C221.613 27.7295 221.874 27.9909 222.066 28.3215C222.269 28.6522 222.37 29.0149 222.37 29.4095V38.7695H220.434V34.8175H212.77V38.7695H210.85ZM212.77 32.8975H220.434V29.4735C220.434 29.3882 220.402 29.3189 220.338 29.2655C220.285 29.2122 220.221 29.1855 220.146 29.1855H213.058C212.983 29.1855 212.914 29.2122 212.85 29.2655C212.797 29.3189 212.77 29.3882 212.77 29.4735V32.8975ZM228.417 38.7695V29.1855H223.617V27.2495H235.137V29.1855H230.337V38.7695H228.417ZM236.366 38.7695V27.2495H246.942V29.1855H238.302V32.0495H245.262V33.9695H238.302V36.8335H246.942V38.7695H236.366Z" fill="#121212"/>
<defs>
<filter id="filter0_d_120_2498" x="0.5" y="0" width="418" height="64" filterUnits="userSpaceOnUse" color-interpolation-filters="sRGB">
<feFlood flood-opacity="0" result="BackgroundImageFix"/>
<feColorMatrix in="SourceAlpha" type="matrix" values="0 0 0 0 0 0 0 0 0 0 0 0 0 0 0 0 0 0 127 0" result="hardAlpha"/>
<feOffset/>
<feGaussianBlur stdDeviation="4"/>
<feComposite in2="hardAlpha" operator="out"/>
<feColorMatrix type="matrix" values="0 0 0 0 1 0 0 0 0 1 0 0 0 0 1 0 0 0 1 0"/>
<feBlend mode="normal" in2="BackgroundImageFix" result="effect1_dropShadow_120_2498"/>
<feBlend mode="normal" in="SourceGraphic" in2="effect1_dropShadow_120_2498" result="shape"/>
</filter>
</defs>
</svg>
