<svg width="18" height="19" viewBox="0 0 18 19" fill="none" xmlns="http://www.w3.org/2000/svg">
<path d="M16.9952 6.44274C16.9994 6.66165 16.8851 6.84306 16.7205 7.00524C15.4518 8.27118 14.184 9.53852 12.9171 10.8073C10.9796 12.7448 9.04115 14.6838 7.10177 16.6245C6.93349 16.7927 6.74974 16.9137 6.50271 16.9104C6.19193 16.9062 5.96084 16.7651 5.82724 16.4885C5.68943 16.204 5.73349 15.9307 5.92709 15.6827C5.96105 15.6424 5.99753 15.6042 6.03631 15.5684C9.24256 12.3627 12.4486 9.15571 15.6546 5.94727C15.8622 5.73915 16.0943 5.62196 16.3943 5.68149C16.7524 5.75415 16.9999 6.05462 16.9952 6.44274Z" fill="#6B7280"/>
<path d="M16.9957 11.6823C17.0027 11.9087 16.8846 12.0948 16.7144 12.2631C15.5447 13.4296 14.3763 14.5976 13.2091 15.767C12.8983 16.0777 12.5941 16.3946 12.2749 16.6965C11.853 17.094 11.1921 16.9215 11.0318 16.3777C10.9988 16.2739 10.9898 16.164 11.0057 16.0562C11.0215 15.9484 11.0617 15.8456 11.1232 15.7557C11.1593 15.7024 11.2006 15.6528 11.2464 15.6076C12.7293 14.1241 14.2122 12.6409 15.6954 11.1577C15.9185 10.9346 16.1833 10.8629 16.4843 10.9581C16.7974 11.0565 16.9938 11.3349 16.9957 11.6823Z" fill="#6B7280"/>
</svg>
